<?xml version="1.0" encoding="UTF-8" standalone="no"?>
<!-- Created with Inkscape (http://www.inkscape.org/) -->

<svg
   xmlns:dc="http://purl.org/dc/elements/1.1/"
   xmlns:cc="http://creativecommons.org/ns#"
   xmlns:rdf="http://www.w3.org/1999/02/22-rdf-syntax-ns#"
   xmlns:svg="http://www.w3.org/2000/svg"
   xmlns="http://www.w3.org/2000/svg"
   xmlns:xlink="http://www.w3.org/1999/xlink"
   xmlns:sodipodi="http://sodipodi.sourceforge.net/DTD/sodipodi-0.dtd"
   xmlns:inkscape="http://www.inkscape.org/namespaces/inkscape"
   width="191.3213mm"
   height="185.87051mm"
   viewBox="0 0 191.3213 185.87051"
   version="1.1"
   id="svg8"
   inkscape:version="0.92.4 (5da689c313, 2019-01-14)"
   sodipodi:docname="dateiformate.svg">
  <defs
     id="defs2">
    <marker
       inkscape:stockid="Arrow1Lend"
       orient="auto"
       refY="0"
       refX="0"
       id="Arrow1Lend"
       style="overflow:visible"
       inkscape:isstock="true">
      <path
         id="path820"
         d="M 0,0 5,-5 -12.5,0 5,5 Z"
         style="fill:#000000;fill-opacity:1;fill-rule:evenodd;stroke:#000000;stroke-width:1.00000003pt;stroke-opacity:1"
         transform="matrix(-0.8,0,0,-0.8,-10,0)"
         inkscape:connector-curvature="0" />
    </marker>
    <marker
       inkscape:stockid="Arrow1Lend"
       orient="auto"
       refY="0"
       refX="0"
       id="Arrow1Lend-3"
       style="overflow:visible"
       inkscape:isstock="true">
      <path
         inkscape:connector-curvature="0"
         id="path820-6"
         d="M 0,0 5,-5 -12.5,0 5,5 Z"
         style="fill:#000000;fill-opacity:1;fill-rule:evenodd;stroke:#000000;stroke-width:1.00000003pt;stroke-opacity:1"
         transform="matrix(-0.8,0,0,-0.8,-10,0)" />
    </marker>
    <inkscape:perspective
       id="perspective2517"
       inkscape:persp3d-origin="372.04725 : 350.78736 : 1"
       inkscape:vp_z="744.0945 : 526.18105 : 1"
       inkscape:vp_y="0 : 999.99993 : 0"
       inkscape:vp_x="0 : 526.18105 : 1"
       sodipodi:type="inkscape:persp3d" />
    <clipPath
       id="clipPath174">
      <path
         id="path176"
         d="M 2,1 H 15 V 33 H 28 V 17 h 13 v 48 h 13 v 64 H 2 Z"
         inkscape:connector-curvature="0" />
    </clipPath>
  </defs>
  <sodipodi:namedview
     id="base"
     pagecolor="#ffffff"
     bordercolor="#666666"
     borderopacity="1.0"
     inkscape:pageopacity="0.0"
     inkscape:pageshadow="2"
     inkscape:zoom="1.4"
     inkscape:cx="235.96807"
     inkscape:cy="373.67335"
     inkscape:document-units="mm"
     inkscape:current-layer="layer1"
     showgrid="false"
     inkscape:window-width="2560"
     inkscape:window-height="1370"
     inkscape:window-x="0"
     inkscape:window-y="33"
     inkscape:window-maximized="1"
     fit-margin-top="0"
     fit-margin-left="0"
     fit-margin-right="0"
     fit-margin-bottom="0" />
  <metadata
     id="metadata5">
    <rdf:RDF>
      <cc:Work
         rdf:about="">
        <dc:format>image/svg+xml</dc:format>
        <dc:type
           rdf:resource="http://purl.org/dc/dcmitype/StillImage" />
        <dc:title></dc:title>
      </cc:Work>
    </rdf:RDF>
  </metadata>
  <g
     inkscape:label="Ebene 1"
     inkscape:groupmode="layer"
     id="layer1"
     transform="translate(-5.3272364,-49.735326)">
    <path
       style="fill:none;stroke:#000000;stroke-width:0.26499999;stroke-linecap:butt;stroke-linejoin:miter;stroke-miterlimit:4;stroke-dasharray:none;stroke-opacity:1;marker-end:url(#Arrow1Lend)"
       d="M 11.717265,139.00595 H 189.74405"
       id="path815"
       inkscape:connector-curvature="0" />
    <path
       style="fill:none;stroke:#000000;stroke-width:0.26499999;stroke-linecap:butt;stroke-linejoin:miter;stroke-miterlimit:4;stroke-dasharray:none;stroke-opacity:1;marker-end:url(#Arrow1Lend-3)"
       d="M 100.98789,228.27657 V 50.249789"
       id="path815-7"
       inkscape:connector-curvature="0" />
    <text
       xml:space="preserve"
       style="font-style:normal;font-variant:normal;font-weight:normal;font-stretch:normal;font-size:14.11111069px;line-height:1.25;font-family:'Noto Color Emoji';-inkscape-font-specification:'Noto Color Emoji, Normal';font-variant-ligatures:normal;font-variant-caps:normal;font-variant-numeric:normal;font-feature-settings:normal;text-align:start;letter-spacing:0px;word-spacing:0px;writing-mode:lr-tb;text-anchor:start;fill:#338000;fill-opacity:1;stroke:none;stroke-width:0.26458332"
       x="103.56548"
       y="54.871964"
       id="text1192"><tspan
         sodipodi:role="line"
         id="tspan1190"
         x="103.56548"
         y="54.871964"
         style="font-style:normal;font-variant:normal;font-weight:normal;font-stretch:normal;font-size:7.05555534px;font-family:Arial;-inkscape-font-specification:Arial;fill:#338000;stroke-width:0.26458332">offen</tspan></text>
    <text
       xml:space="preserve"
       style="font-style:normal;font-variant:normal;font-weight:normal;font-stretch:normal;font-size:14.11111069px;line-height:1.25;font-family:'Noto Color Emoji';-inkscape-font-specification:'Noto Color Emoji, Normal';font-variant-ligatures:normal;font-variant-caps:normal;font-variant-numeric:normal;font-feature-settings:normal;text-align:start;letter-spacing:0px;word-spacing:0px;writing-mode:lr-tb;text-anchor:start;fill:#800000;fill-opacity:1;stroke:none;stroke-width:0.26458332"
       x="103.33466"
       y="228.19389"
       id="text1196"><tspan
         sodipodi:role="line"
         id="tspan1194"
         x="103.33466"
         y="228.19389"
         style="font-style:normal;font-variant:normal;font-weight:normal;font-stretch:normal;font-size:7.05555534px;font-family:Arial;-inkscape-font-specification:Arial;fill:#800000;stroke-width:0.26458332">nicht öffentlich</tspan></text>
    <text
       xml:space="preserve"
       style="font-style:normal;font-variant:normal;font-weight:normal;font-stretch:normal;font-size:14.11111069px;line-height:1.25;font-family:'Noto Color Emoji';-inkscape-font-specification:'Noto Color Emoji, Normal';font-variant-ligatures:normal;font-variant-caps:normal;font-variant-numeric:normal;font-feature-settings:normal;text-align:start;letter-spacing:0px;word-spacing:0px;writing-mode:lr-tb;text-anchor:start;fill:#000000;fill-opacity:1;stroke:none;stroke-width:0.26458332"
       x="11.252174"
       y="147.71443"
       id="text1196-5"><tspan
         sodipodi:role="line"
         id="tspan1194-3"
         x="11.252174"
         y="147.71443"
         style="font-style:normal;font-variant:normal;font-weight:normal;font-stretch:normal;font-size:7.05555534px;font-family:Arial;-inkscape-font-specification:Arial;stroke-width:0.26458332">proprietär</tspan></text>
    <text
       xml:space="preserve"
       style="font-style:normal;font-variant:normal;font-weight:normal;font-stretch:normal;font-size:14.11111069px;line-height:1.25;font-family:'Noto Color Emoji';-inkscape-font-specification:'Noto Color Emoji, Normal';font-variant-ligatures:normal;font-variant-caps:normal;font-variant-numeric:normal;font-feature-settings:normal;text-align:start;letter-spacing:0px;word-spacing:0px;writing-mode:lr-tb;text-anchor:start;fill:#003380;fill-opacity:1;stroke:none;stroke-width:0.26458332"
       x="180.9292"
       y="147.76955"
       id="text1196-56"><tspan
         sodipodi:role="line"
         id="tspan1194-2"
         x="180.9292"
         y="147.76955"
         style="font-style:normal;font-variant:normal;font-weight:normal;font-stretch:normal;font-size:7.05555534px;font-family:Arial;-inkscape-font-specification:Arial;fill:#003380;stroke-width:0.26458332">frei</tspan><tspan
         sodipodi:role="line"
         x="180.9292"
         y="165.40843"
         style="font-style:normal;font-variant:normal;font-weight:normal;font-stretch:normal;font-size:7.05555534px;font-family:Arial;-inkscape-font-specification:Arial;fill:#003380;stroke-width:0.26458332"
         id="tspan1224" /></text>
    <g
       style="fill:#000000"
       id="g1854"
       transform="matrix(0.46875,0,0,0.46875,13.504197,51.364586)">
      <g
         id="g1561"
         display="none"
         style="display:none">
        <rect
           id="rect1555"
           height="430"
           width="20"
           display="inline"
           y="-272.00601"
           x="-19.993999"
           style="display:inline;fill:#000000" />
        <rect
           id="rect1557"
           height="1023"
           width="20"
           display="inline"
           transform="rotate(-90,216.5059,73.9941)"
           y="-437.50601"
           x="206.506"
           style="display:inline;fill:#000000" />
        <rect
           id="rect1559"
           height="496.18399"
           width="947.42401"
           display="inline"
           y="-289.67401"
           x="-222.01401"
           style="display:inline;fill:#000000" />
      </g>
      <g
         id="g1599"
         display="none"
         style="display:none">
        <g
           id="g1575"
           display="inline"
           style="display:inline">
          <g
             id="g1565">
            <path
               id="path1563"
               d="M 19.378,24.853 18.52,27.94 H 15.7 l 3.677,-12.031 h 3.57 l 3.731,12.031 h -2.927 l -0.929,-3.087 z m 3.052,-2.035 -0.75,-2.554 c -0.214,-0.714 -0.429,-1.606 -0.608,-2.32 h -0.035 c -0.179,0.714 -0.358,1.624 -0.554,2.32 l -0.714,2.554 z"
               inkscape:connector-curvature="0" />
          </g>
          <g
             id="g1569">
            <path
               id="path1567"
               d="m 30.915,24.853 -0.858,3.087 h -2.82 l 3.677,-12.031 h 3.57 l 3.731,12.031 h -2.927 l -0.929,-3.087 z m 3.053,-2.035 -0.75,-2.554 C 33.004,19.55 32.789,18.658 32.61,17.944 h -0.035 c -0.179,0.714 -0.358,1.624 -0.554,2.32 l -0.714,2.554 z"
               inkscape:connector-curvature="0" />
          </g>
          <g
             id="g1573">
            <path
               id="path1571"
               d="m 48.04,27.602 c -0.5,0.25 -1.625,0.517 -3.089,0.517 -4.158,0 -6.301,-2.589 -6.301,-6.016 0,-4.105 2.927,-6.39 6.568,-6.39 1.411,0 2.481,0.285 2.964,0.535 l -0.554,2.16 c -0.552,-0.233 -1.321,-0.446 -2.285,-0.446 -2.16,0 -3.837,1.304 -3.837,3.981 0,2.41 1.427,3.927 3.856,3.927 0.821,0 1.731,-0.179 2.266,-0.394 z"
               inkscape:connector-curvature="0" />
          </g>
        </g>
        <g
           id="g1581"
           display="inline"
           style="display:inline">
          <g
             id="g1579">
            <path
               id="path1577"
               d="M 49.621,2 C 52.587,2 55,4.413 55,7.379 V 56.62 C 55,59.587 52.587,62 49.621,62 H 14.379 C 11.413,62 9,59.587 9,56.621 V 7.379 C 9,4.413 11.413,2 14.379,2 h 35.242 m 0,-2 H 14.379 C 10.304,0 7,3.304 7,7.379 V 56.62 C 7,60.696 10.304,64 14.379,64 H 49.62 C 53.696,64 57,60.696 57,56.621 V 7.379 C 57,3.304 53.696,0 49.621,0 Z"
               inkscape:connector-curvature="0" />
          </g>
        </g>
        <g
           id="g1597"
           display="inline"
           style="display:inline">
          <g
             id="g1595">
            <g
               id="g1585">
              <line
                 id="line1583"
                 y2="41.428001"
                 x2="49.577999"
                 y1="41.428001"
                 x1="14.293"
                 stroke-miterlimit="10"
                 style="fill:none;stroke:#000000;stroke-width:2;stroke-miterlimit:10" />
            </g>
            <g
               id="g1589">
              <line
                 id="line1587"
                 y2="46.332001"
                 x2="49.577999"
                 y1="46.332001"
                 x1="14.293"
                 stroke-miterlimit="10"
                 style="fill:none;stroke:#000000;stroke-width:2;stroke-miterlimit:10" />
            </g>
            <g
               id="g1593">
              <line
                 id="line1591"
                 y2="51.235001"
                 x2="49.577999"
                 y1="51.235001"
                 x1="14.293"
                 stroke-miterlimit="10"
                 style="fill:none;stroke:#000000;stroke-width:2;stroke-miterlimit:10" />
            </g>
          </g>
        </g>
      </g>
      <g
         id="g1637"
         display="none"
         style="display:none">
        <g
           id="g1613"
           display="inline"
           style="display:inline">
          <g
             id="g1603">
            <path
               id="path1601"
               d="M 19.378,24.853 18.52,27.94 H 15.7 l 3.677,-12.031 h 3.57 l 3.731,12.031 h -2.927 l -0.929,-3.087 z m 3.052,-2.035 -0.75,-2.554 c -0.214,-0.714 -0.429,-1.606 -0.608,-2.32 h -0.035 c -0.179,0.714 -0.358,1.624 -0.554,2.32 l -0.714,2.554 z"
               inkscape:connector-curvature="0" />
          </g>
          <g
             id="g1607">
            <path
               id="path1605"
               d="m 30.915,24.853 -0.858,3.087 h -2.82 l 3.677,-12.031 h 3.57 l 3.731,12.031 h -2.927 l -0.929,-3.087 z m 3.053,-2.035 -0.75,-2.554 C 33.004,19.55 32.789,18.658 32.61,17.944 h -0.035 c -0.179,0.714 -0.358,1.624 -0.554,2.32 l -0.714,2.554 z"
               inkscape:connector-curvature="0" />
          </g>
          <g
             id="g1611">
            <path
               id="path1609"
               d="m 48.04,27.602 c -0.5,0.25 -1.625,0.517 -3.089,0.517 -4.158,0 -6.301,-2.589 -6.301,-6.016 0,-4.105 2.927,-6.39 6.568,-6.39 1.411,0 2.481,0.285 2.964,0.535 l -0.554,2.16 c -0.552,-0.233 -1.321,-0.446 -2.285,-0.446 -2.16,0 -3.837,1.304 -3.837,3.981 0,2.41 1.427,3.927 3.856,3.927 0.821,0 1.731,-0.179 2.266,-0.394 z"
               inkscape:connector-curvature="0" />
          </g>
        </g>
        <g
           id="g1619"
           display="inline"
           style="display:inline">
          <g
             id="g1617">
            <path
               id="path1615"
               d="M 49.621,1 C 53.138,1 56,3.862 56,7.379 V 56.62 C 56,60.138 53.138,63 49.621,63 H 14.379 C 10.862,63 8,60.138 8,56.621 V 7.379 C 8,3.862 10.862,1 14.379,1 h 35.242 m 0,-1 H 14.379 C 10.304,0 7,3.304 7,7.379 V 56.62 C 7,60.696 10.304,64 14.379,64 H 49.62 C 53.696,64 57,60.696 57,56.621 V 7.379 C 57,3.304 53.696,0 49.621,0 Z"
               inkscape:connector-curvature="0" />
          </g>
        </g>
        <g
           id="g1635"
           display="inline"
           style="display:inline">
          <g
             id="g1633">
            <g
               id="g1623">
              <line
                 id="line1621"
                 y2="41.428001"
                 x2="49.577999"
                 y1="41.428001"
                 x1="14.293"
                 stroke-miterlimit="10"
                 style="fill:none;stroke:#000000;stroke-miterlimit:10" />
            </g>
            <g
               id="g1627">
              <line
                 id="line1625"
                 y2="46.332001"
                 x2="49.577999"
                 y1="46.332001"
                 x1="14.293"
                 stroke-miterlimit="10"
                 style="fill:none;stroke:#000000;stroke-miterlimit:10" />
            </g>
            <g
               id="g1631">
              <line
                 id="line1629"
                 y2="51.235001"
                 x2="49.577999"
                 y1="51.235001"
                 x1="14.293"
                 stroke-miterlimit="10"
                 style="fill:none;stroke:#000000;stroke-miterlimit:10" />
            </g>
          </g>
        </g>
      </g>
      <g
         id="g1655">
        <g
           id="g1653">
          <path
             id="path1639"
             d="m 19.378,24.339 h 3.445 l 0.929,3.087 h 2.927 L 22.948,15.395 h -3.57 L 15.7,27.426 h 2.82 z m 1.106,-4.589 c 0.196,-0.696 0.375,-1.606 0.554,-2.32 h 0.035 c 0.179,0.714 0.394,1.606 0.608,2.32 l 0.75,2.554 h -2.66 z"
             inkscape:connector-curvature="0" />
          <path
             id="path1641"
             d="m 30.915,24.339 h 3.445 l 0.929,3.087 h 2.927 L 34.485,15.395 h -3.57 l -3.677,12.031 h 2.82 z m 1.107,-4.589 c 0.196,-0.696 0.375,-1.606 0.554,-2.32 h 0.035 c 0.179,0.714 0.394,1.606 0.608,2.32 l 0.75,2.554 h -2.66 z"
             inkscape:connector-curvature="0" />
          <path
             id="path1643"
             d="m 44.952,27.605 c 1.464,0 2.589,-0.267 3.089,-0.517 L 47.63,24.963 c -0.535,0.215 -1.445,0.394 -2.266,0.394 -2.429,0 -3.856,-1.517 -3.856,-3.927 0,-2.677 1.677,-3.981 3.837,-3.981 0.964,0 1.733,0.214 2.285,0.446 l 0.554,-2.16 C 47.701,15.485 46.632,15.2 45.22,15.2 c -3.641,0 -6.568,2.285 -6.568,6.39 -10e-4,3.426 2.141,6.015 6.3,6.015 z"
             inkscape:connector-curvature="0" />
          <path
             id="path1645"
             d="M 12.879,64 H 51.12 c 4.075,0 7.379,-3.304 7.379,-7.379 V 7.379 C 58.5,3.304 55.196,0 51.121,0 H 12.879 C 8.804,0 5.5,3.304 5.5,7.379 V 56.62 C 5.5,60.696 8.804,64 12.879,64 Z M 9.5,7.379 C 9.5,5.516 11.016,4 12.879,4 H 51.12 c 1.864,0 3.38,1.516 3.38,3.379 V 56.62 c 0,1.863 -1.516,3.379 -3.379,3.379 H 12.879 C 11.016,60 9.5,58.484 9.5,56.621 Z"
             inkscape:connector-curvature="0" />
          <rect
             id="rect1647"
             height="4"
             width="34"
             y="38.698002"
             x="15" />
          <rect
             id="rect1649"
             height="4"
             width="34"
             y="44.602001"
             x="15" />
          <rect
             id="rect1651"
             height="4"
             width="34"
             y="50.505001"
             x="15" />
        </g>
      </g>
      <g
         id="g1693"
         display="none"
         style="display:none">
        <g
           id="g1669"
           display="inline"
           style="display:inline">
          <g
             id="g1659">
            <path
               id="path1657"
               d="M 19.378,24.853 18.52,27.94 H 15.7 l 3.677,-12.031 h 3.57 l 3.731,12.031 h -2.927 l -0.929,-3.087 z m 3.052,-2.035 -0.75,-2.554 c -0.214,-0.714 -0.429,-1.606 -0.608,-2.32 h -0.035 c -0.179,0.714 -0.358,1.624 -0.554,2.32 l -0.714,2.554 z"
               inkscape:connector-curvature="0" />
          </g>
          <g
             id="g1663">
            <path
               id="path1661"
               d="m 30.915,24.853 -0.858,3.087 h -2.82 l 3.677,-12.031 h 3.57 l 3.731,12.031 h -2.927 l -0.929,-3.087 z m 3.053,-2.035 -0.75,-2.554 C 33.004,19.55 32.789,18.658 32.61,17.944 h -0.035 c -0.179,0.714 -0.358,1.624 -0.554,2.32 l -0.714,2.554 z"
               inkscape:connector-curvature="0" />
          </g>
          <g
             id="g1667">
            <path
               id="path1665"
               d="m 48.04,27.602 c -0.5,0.25 -1.625,0.517 -3.089,0.517 -4.158,0 -6.301,-2.589 -6.301,-6.016 0,-4.105 2.927,-6.39 6.568,-6.39 1.411,0 2.481,0.285 2.964,0.535 l -0.554,2.16 c -0.552,-0.233 -1.321,-0.446 -2.285,-0.446 -2.16,0 -3.837,1.304 -3.837,3.981 0,2.41 1.427,3.927 3.856,3.927 0.821,0 1.731,-0.179 2.266,-0.394 z"
               inkscape:connector-curvature="0" />
          </g>
        </g>
        <g
           id="g1675"
           display="inline"
           style="display:inline">
          <g
             id="g1673">
            <path
               id="path1671"
               d="M 55,2 V 56.621 C 55,59.587 52.587,62 49.621,62 H 9 V 7.379 C 9,4.413 11.413,2 14.379,2 H 55 M 57,0 H 14.379 C 10.304,0 7,3.304 7,7.379 V 64 H 49.621 C 53.696,64 57,60.696 57,56.621 Z"
               inkscape:connector-curvature="0" />
          </g>
        </g>
        <g
           id="g1691"
           display="inline"
           style="display:inline">
          <g
             id="g1689">
            <g
               id="g1679">
              <line
                 id="line1677"
                 y2="41.428001"
                 x2="49.577999"
                 y1="41.428001"
                 x1="14.293"
                 stroke-miterlimit="10"
                 style="fill:none;stroke:#000000;stroke-width:2;stroke-miterlimit:10" />
            </g>
            <g
               id="g1683">
              <line
                 id="line1681"
                 y2="46.332001"
                 x2="49.577999"
                 y1="46.332001"
                 x1="14.293"
                 stroke-miterlimit="10"
                 style="fill:none;stroke:#000000;stroke-width:2;stroke-miterlimit:10" />
            </g>
            <g
               id="g1687">
              <line
                 id="line1685"
                 y2="51.235001"
                 x2="49.577999"
                 y1="51.235001"
                 x1="14.293"
                 stroke-miterlimit="10"
                 style="fill:none;stroke:#000000;stroke-width:2;stroke-miterlimit:10" />
            </g>
          </g>
        </g>
      </g>
      <g
         id="g1747"
         display="none"
         style="display:none">
        <g
           id="g1707"
           display="inline"
           style="display:inline">
          <g
             id="g1697">
            <path
               id="path1695"
               d="M 19.378,24.853 18.52,27.94 H 15.7 l 3.677,-12.031 h 3.57 l 3.731,12.031 h -2.927 l -0.929,-3.087 z m 3.052,-2.035 -0.75,-2.554 c -0.214,-0.714 -0.429,-1.606 -0.608,-2.32 h -0.035 c -0.179,0.714 -0.358,1.624 -0.554,2.32 l -0.714,2.554 z"
               inkscape:connector-curvature="0" />
          </g>
          <g
             id="g1701">
            <path
               id="path1699"
               d="m 30.915,24.853 -0.858,3.087 h -2.82 l 3.677,-12.031 h 3.57 l 3.731,12.031 h -2.927 l -0.929,-3.087 z m 3.053,-2.035 -0.75,-2.554 C 33.004,19.55 32.789,18.658 32.61,17.944 h -0.035 c -0.179,0.714 -0.358,1.624 -0.554,2.32 l -0.714,2.554 z"
               inkscape:connector-curvature="0" />
          </g>
          <g
             id="g1705">
            <path
               id="path1703"
               d="m 48.04,27.602 c -0.5,0.25 -1.625,0.517 -3.089,0.517 -4.158,0 -6.301,-2.589 -6.301,-6.016 0,-4.105 2.927,-6.39 6.568,-6.39 1.411,0 2.481,0.285 2.964,0.535 l -0.554,2.16 c -0.552,-0.233 -1.321,-0.446 -2.285,-0.446 -2.16,0 -3.837,1.304 -3.837,3.981 0,2.41 1.427,3.927 3.856,3.927 0.821,0 1.731,-0.179 2.266,-0.394 z"
               inkscape:connector-curvature="0" />
          </g>
        </g>
        <g
           id="g1729"
           display="inline"
           style="display:inline">
          <g
             id="g1713">
            <line
               id="line1709"
               y2="5.2729998"
               x2="7"
               y1="58.727001"
               x1="7"
               stroke-miterlimit="10"
               style="fill:none;stroke:#000000;stroke-miterlimit:10" />
            <line
               id="line1711"
               y2="58.727001"
               x2="57"
               y1="5.2729998"
               x1="57"
               stroke-miterlimit="10"
               style="fill:none;stroke:#000000;stroke-miterlimit:10" />
          </g>
          <g
             id="g1727">
            <g
               id="g1719">
              <g
                 id="g1717">
                <path
                   id="path1715"
                   d="M 58.754,1 V 4.582 H 5.246 V 1 h 53.508 m 1,-1 H 4.246 V 5.582 H 59.753 V 0 Z"
                   inkscape:connector-curvature="0" />
              </g>
            </g>
            <g
               id="g1725">
              <g
                 id="g1723">
                <path
                   id="path1721"
                   d="M 58.754,59.418 V 63 H 5.246 v -3.582 h 53.508 m 1,-1 H 4.246 V 64 h 55.507 v -5.582 z"
                   inkscape:connector-curvature="0" />
              </g>
            </g>
          </g>
        </g>
        <g
           id="g1745"
           display="inline"
           style="display:inline">
          <g
             id="g1743">
            <g
               id="g1733">
              <line
                 id="line1731"
                 y2="39.428001"
                 x2="49.577999"
                 y1="39.428001"
                 x1="14.293"
                 stroke-miterlimit="10"
                 style="fill:none;stroke:#000000;stroke-miterlimit:10" />
            </g>
            <g
               id="g1737">
              <line
                 id="line1735"
                 y2="44.332001"
                 x2="49.577999"
                 y1="44.332001"
                 x1="14.293"
                 stroke-miterlimit="10"
                 style="fill:none;stroke:#000000;stroke-miterlimit:10" />
            </g>
            <g
               id="g1741">
              <line
                 id="line1739"
                 y2="49.235001"
                 x2="49.577999"
                 y1="49.235001"
                 x1="14.293"
                 stroke-miterlimit="10"
                 style="fill:none;stroke:#000000;stroke-miterlimit:10" />
            </g>
          </g>
        </g>
      </g>
    </g>
    <path
       id="path2521"
       d="m 91.478824,87.950201 c -0.34864,-0.0144 -0.77245,-0.0449 -0.94179,-0.0679 -1.24707,-0.16914 -2.5374,-0.72493 -3.51647,-1.51466 -0.151,-0.1218 -0.46125,-0.4151 -0.68944,-0.65179 -1.02099,-1.05898 -1.67495,-2.43736 -1.84381,-3.88626 -0.0564,-0.48365 -0.0285,-1.65926 0.0509,-2.14909 0.25423,-1.56826 0.9201,-3.07898 1.89374,-4.29651 1.7391,-2.17473 4.62881,-3.68664 7.61351,-3.98342 2.64579,-0.26309 5.07373,0.76484 6.354206,2.69022 0.34287,0.51554 0.73851,1.3776 0.69506,1.51447 -0.0442,0.13912 -0.15257,0.0787 -0.2184,-0.12166 -0.22368,-0.6808 -0.69328,-1.42867 -1.233776,-1.96487 -0.68336,-0.67792 -1.76277,-1.22412 -2.82671,-1.43036 -1.3195,-0.25579 -2.66154,-0.15588 -4.21407,0.3137 -1.76426,0.53362 -3.21001,1.37391 -4.38295,2.54743 -1.24973,1.25035 -2.01314,2.71419 -2.34233,4.49143 -0.0924,0.499 -0.0931,1.85082 -10e-4,2.27749 0.22961,1.06491 0.69585,1.91217 1.45295,2.6403 0.79838,0.76784 1.83231,1.29365 3.01388,1.53272 0.48604,0.0983 1.6976,0.13732 2.24984,0.0724 1.54333,-0.18148 2.80707,-0.76992 3.69731,-1.72159 0.48067,-0.51384 0.71473,-0.92211 1.19506,-2.0846 0.16052,-0.38849 0.44977,-1.06495 0.64277,-1.50324 0.78197,-1.77575 0.77607,-1.75801 0.63208,-1.902 -0.0693,-0.0693 -0.10696,-0.0781 -0.25704,-0.0603 -0.29606,0.0351 -0.54678,0.25961 -0.75526,0.67642 -0.0548,0.10957 -0.43898,0.96126 -0.85372,1.89264 l -0.75408,1.69341 h -1.35216 c -1.26356,0 -1.35218,-0.004 -1.35234,-0.0634 -10e-5,-0.0349 0.37481,-0.90421 0.83312,-1.93188 0.70298,-1.57628 0.8333,-1.89506 0.8333,-2.03842 0,-0.15193 -0.0106,-0.17401 -0.0996,-0.20834 -0.25425,-0.098 -0.57785,0.063 -0.8088,0.40242 -0.0746,0.10958 -0.4951,1.00476 -0.93455,1.98929 -0.43945,0.98454 -0.81174,1.80205 -0.82731,1.81669 -0.0156,0.0146 -0.62149,0.0323 -1.34648,0.0392 -1.142,0.0109 -1.32258,0.005 -1.35122,-0.0418 -0.0303,-0.0497 0.50932,-1.29235 2.07258,-4.77278 l 0.26459,-0.58906 1.30663,0.01 c 1.27435,0.009 1.30696,0.0113 1.31969,0.0819 0.0225,0.12496 0.0601,0.13092 0.26224,0.0416 0.41036,-0.18131 0.80783,-0.2569 1.3557,-0.25781 0.42325,-6.8e-4 0.54913,0.0124 0.76117,0.079 0.29261,0.0919 0.54859,0.25068 0.64837,0.40214 l 0.0693,0.1052 0.29293,-0.13712 c 0.98802,-0.46251 2.111256,-0.58878 2.833526,-0.31855 0.26035,0.0974 0.56798,0.38129 0.65358,0.60312 0.0959,0.24865 0.0822,0.64241 -0.0345,0.9857 -0.22324,0.657 -1.678206,3.81928 -2.120946,4.60975 -1.06519,1.9018 -2.2552,3.02585 -3.88004,3.66502 -0.68237,0.26843 -1.674,0.47145 -2.49232,0.51026 -0.80543,0.0382 -0.94848,0.0395 -1.56682,0.014 z m 8.27702,-2.20629 c -0.0122,-0.0198 0.281656,-0.71663 0.653096,-1.54852 1.29027,-2.88968 1.50377,-3.3688 2.22356,-4.98989 l 0.72376,-1.63002 h 1.42354 1.42354 l 0.0115,0.0996 c 0.014,0.12168 0.0216,0.12194 0.26814,0.009 0.38959,-0.17836 0.72959,-0.24489 1.25986,-0.24651 1.10841,-0.003 1.75723,0.32641 1.96082,0.99668 0.32524,1.07079 -0.65915,3.03586 -1.95144,3.89551 -0.74548,0.49589 -1.43535,0.71737 -2.36385,0.75887 -0.51025,0.0228 -0.75417,-0.0211 -1.13714,-0.20496 -0.12096,-0.0581 -0.22279,-0.10255 -0.22629,-0.0989 -0.004,0.004 -0.27871,0.61794 -0.61157,1.36503 -0.33286,0.74709 -0.63624,1.41948 -0.67418,1.49419 l -0.069,0.13583 h -1.44604 c -0.91905,0 -1.454136,-0.0131 -1.468276,-0.036 z m 5.577126,-3.7465 c 0.39469,-0.16491 0.88996,-0.90669 1.34051,-2.00772 0.22212,-0.5428 0.31859,-0.94273 0.30152,-1.24998 -0.0106,-0.19189 -0.0295,-0.25992 -0.0827,-0.29884 -0.25398,-0.18571 -0.78481,0.16933 -1.19737,0.80085 -0.35273,0.53993 -0.78293,1.49056 -0.90511,2.00004 -0.0753,0.31395 -0.0597,0.6279 0.0365,0.73421 0.0801,0.0885 0.32171,0.0987 0.5066,0.0214 z m 5.51969,1.04689 c -0.48427,-0.0661 -0.75391,-0.14419 -1.15165,-0.33364 -0.27126,-0.1292 -0.39754,-0.2174 -0.61097,-0.42672 -0.14797,-0.14512 -0.26305,-0.28107 -0.25574,-0.30212 0.0227,-0.0655 1.37096,-1.05578 1.43647,-1.05514 0.0341,2.7e-4 0.16791,0.0395 0.29741,0.0872 0.20461,0.0752 0.23433,0.0977 0.22695,0.17145 -0.0501,0.50103 -0.0521,0.65245 -0.01,0.75433 0.10862,0.26222 0.49574,0.3728 0.96801,0.27651 0.4369,-0.0891 0.70425,-0.23998 1.06177,-0.59927 0.45901,-0.46129 0.70912,-0.98624 0.68092,-1.42915 -0.0174,-0.27321 -0.10897,-0.41865 -0.33141,-0.52633 -0.13968,-0.0676 -0.22155,-0.0755 -0.77967,-0.0755 -0.52928,0 -0.62685,-0.008 -0.6451,-0.056 -0.0192,-0.05 0.23928,-0.69009 0.32475,-0.80426 0.0237,-0.0317 0.16065,-0.0453 0.45653,-0.0453 0.48492,0 0.72829,-0.0515 1.12249,-0.2374 0.55435,-0.26147 1.07167,-0.92596 1.17062,-1.50364 0.0349,-0.20372 0.0317,-0.2513 -0.0251,-0.37103 -0.0894,-0.18839 -0.27479,-0.27863 -0.57241,-0.27863 -0.39414,0 -0.78197,0.14745 -1.05864,0.40246 -0.18792,0.17323 -0.28004,0.35142 -0.30627,0.59246 l -0.0196,0.17991 -0.32601,0.10111 c -0.1793,0.0556 -0.34444,0.0941 -0.36697,0.0855 -0.0508,-0.0194 -0.66538,-0.99719 -0.66538,-1.05865 0,-0.0569 0.51647,-0.39924 0.86496,-0.57333 0.89164,-0.44541 2.17531,-0.67983 3.26928,-0.59702 1.19756,0.0907 1.84912,0.50343 1.90562,1.20728 0.0722,0.89889 -0.70908,1.77978 -1.9648,2.21543 -0.15938,0.0553 -0.30351,0.11251 -0.32029,0.12714 -0.0168,0.0146 0.0715,0.081 0.19628,0.14748 0.72446,0.38613 0.93737,1.04577 0.59184,1.83365 -0.25833,0.58907 -0.85311,1.1651 -1.58667,1.53666 -0.33298,0.16866 -1.00966,0.40027 -1.39864,0.47872 -0.68845,0.13885 -1.50812,0.16742 -2.17866,0.0759 z"
       style="fill:#000000;stroke-width:0.03622268"
       inkscape:connector-curvature="0" />
    <g
       transform="matrix(0.0144774,0,0,0.01317419,29.089726,196.17249)"
       id="g5">
      <path
         inkscape:connector-curvature="0"
         id="path7"
         transform="matrix(25.768042,0,0,28.31706,-39.329016,-60.808529)"
         d="m 6.0195312,62.763672 c -0.8382476,0 -1.6061478,0.220679 -2.3046874,0.662109 -0.6985397,0.44143 -1.2329653,1.086423 -1.6132813,1.9375 -0.3764353,0.851077 -0.5683594,1.847626 -0.5683594,2.988281 0,1.045307 0.1721127,2.022858 0.5058594,2.9375 0.3337467,0.911112 0.8186818,1.607615 1.4628906,2.087891 C 4.1461619,73.86076 4.9754751,74.099609 6,74.099609 c 0.9895979,0 1.8287022,-0.312435 2.5117188,-0.9375 C 9.1986161,72.537044 9.6716541,71.627595 9.9355469,70.4375 L 8.6738281,70.070312 c -0.1746349,0.925238 -0.5032352,1.619038 -0.9960937,2.078126 -0.485097,0.46615 -1.078855,0.701171 -1.7851563,0.701171 -0.5782356,0 -1.1145888,-0.169544 -1.6113281,-0.515625 C 3.7845107,71.987903 3.4203211,71.469131 3.1835938,70.773438 2.9468664,70.077744 2.8300781,69.266285 2.8300781,68.333984 c 0,-0.720413 0.1009086,-1.4239 0.2988281,-2.105468 0.1979196,-0.678037 0.5442254,-1.222416 1.0332032,-1.625 C 4.6549679,64.200931 5.2626016,64 5.9921875,64 c 0.6364473,0 1.1648606,0.18509 1.5839844,0.548828 0.4191238,0.363738 0.7377801,0.945661 0.9589843,1.740234 L 9.7734375,65.953125 C 9.5211871,64.943133 9.0660583,64.15953 8.4179688,63.601562 7.7737599,63.043595 6.9703214,62.763672 6.0195312,62.763672 Z m 40.8808598,0.1875 v 10.96289 h 1.917968 v -4.580078 h 0.390625 c 0.44629,0 0.768929,0.04182 0.97461,0.123047 0.2018,0.08122 0.395728,0.236129 0.578125,0.455078 0.182396,0.222481 0.524719,0.756345 1.017578,1.607422 l 1.376953,2.394531 h 2.296875 l -1.160156,-2.140624 c -0.457932,-0.851078 -0.81819,-1.443811 -1.089844,-1.779297 -0.267774,-0.335487 -0.610148,-0.638985 -1.025391,-0.917969 0.834367,-0.141258 1.459783,-0.476893 1.878907,-1.013672 0.419123,-0.533247 0.628906,-1.216237 0.628906,-2.039062 0,-0.646254 -0.140481,-1.221567 -0.416016,-1.726563 -0.275535,-0.501464 -0.643656,-0.851067 -1.105469,-1.048828 -0.457931,-0.197761 -1.200033,-0.296875 -2.216796,-0.296875 z m 12.322265,0 -3.695312,10.964844 h 2.037109 l 0.791016,-2.496094 h 3.820312 l 0.822266,2.496094 h 2.076172 L 61.259766,62.951172 Z m -28.691406,0.0039 V 73.91601 h 1.171875 V 62.955072 Z m 6.771484,0 v 10.96875 h 3.609375 c 0.706302,0 1.272308,-0.07704 1.695313,-0.232422 0.562712,-0.208355 1.013909,-0.50262 1.347656,-0.876953 0.442409,-0.494401 0.778898,-1.139394 1.015625,-1.9375 0.194039,-0.653316 0.291016,-1.429936 0.291016,-2.333984 0,-1.027649 -0.102913,-1.894525 -0.308594,-2.59375 -0.209562,-0.702757 -0.508483,-1.291584 -0.908203,-1.775391 -0.395839,-0.483807 -0.878643,-0.822599 -1.433594,-1.009766 -0.415243,-0.137726 -1.016915,-0.208984 -1.808594,-0.208984 z m 27.13086,0 2.240234,10.960938 h 2.109375 l 1.890625,-8.195313 1.878906,8.195313 h 2.056641 l 2.292969,-10.960938 h -1.931641 l -1.453125,7.65625 -1.660156,-7.65625 h -2.289063 l -1.738281,7.529297 -1.414062,-7.529297 z m -25.205078,1.847656 h 0.857422 c 0.780035,0 1.304492,0.03837 1.572265,0.105469 0.357032,0.08829 0.651919,0.261361 0.884766,0.515625 0.232846,0.257795 0.414903,0.606944 0.542969,1.0625 0.128065,0.455556 0.193359,1.101673 0.193359,1.949219 0,0.847545 -0.06141,1.518895 -0.193359,2.009765 -0.128066,0.490871 -0.296272,0.841223 -0.501954,1.056641 -0.2018,0.211887 -0.461022,0.366792 -0.771484,0.455078 -0.236727,0.07063 -0.620703,0.105469 -1.15625,0.105469 h -1.427734 v -7.255859 -0.0039 z m 9.599609,0.0039 h 1.501953 c 0.776155,0 1.243232,0.01239 1.402344,0.03711 0.310462,0.0565 0.549949,0.201722 0.720703,0.427734 0.170754,0.229544 0.255859,0.525684 0.255859,0.896485 0,0.328424 -0.06141,0.605269 -0.193359,0.824219 -0.128066,0.22248 -0.310097,0.376557 -0.539063,0.464843 -0.232846,0.08829 -0.806818,0.134766 -1.726562,0.134766 h -1.421875 z m 11.398437,0.705078 1.324219,4.058593 h -2.609375 z m -38.951171,0.287109 c -0.275535,0 -0.522988,0.09138 -0.751953,0.271484 -0.228966,0.180104 -0.478321,0.550204 -0.746094,1.115235 v -1.21875 h -1.050782 v 7.947265 h 1.179688 v -4.154296 c 0,-0.568562 0.06141,-1.089662 0.193359,-1.566407 0.08538,-0.314298 0.229841,-0.559756 0.431641,-0.736328 0.2018,-0.176572 0.425509,-0.263672 0.681641,-0.263672 0.283296,0 0.566312,0.09176 0.849609,0.275391 l 0.416016,-1.244141 C 22.071034,65.938563 21.67123,65.798828 21.275391,65.798828 Z m 4.714843,0 c -0.95079,0 -1.722673,0.367398 -2.320312,1.105469 -0.593759,0.734539 -0.892578,1.772163 -0.892578,3.103515 0,1.288976 0.294887,2.292509 0.884765,3.00586 0.589878,0.716882 1.389411,1.072266 2.394532,1.072266 0.80332,0 1.45844,-0.224961 1.970703,-0.669922 0.516143,-0.444962 0.866482,-1.078019 1.05664,-1.886719 L 27.873047,71.34569 c -0.178516,0.572093 -0.41993,0.989877 -0.71875,1.244141 -0.302701,0.261326 -0.666865,0.390625 -1.09375,0.390625 -0.574355,0 -1.055256,-0.232694 -1.439453,-0.695313 -0.388078,-0.462618 -0.601843,-1.133219 -0.644532,-2.001953 h 5.134766 c 0.0039,-0.158915 0.0078,-0.27973 0.0078,-0.357422 0,-1.310164 -0.290931,-2.32293 -0.873047,-3.046875 -0.585997,-0.720414 -1.336116,-1.080078 -2.25586,-1.080078 z m -11.84375,0.002 c -0.85377,0 -1.580044,0.294641 -2.169922,0.88086 -0.714062,0.709819 -1.066406,1.792639 -1.066406,3.261718 0,1.338416 0.294939,2.363196 0.892578,3.080079 0.593759,0.71335 1.373531,1.066406 2.339844,1.066406 0.60152,0 1.155681,-0.159483 1.664063,-0.484375 0.512262,-0.324893 0.902122,-0.780594 1.166015,-1.363281 0.267774,-0.58622 0.398438,-1.387617 0.398438,-2.408204 0,-1.260724 -0.298871,-2.245633 -0.900391,-2.958984 -0.60152,-0.716882 -1.377309,-1.074219 -2.324219,-1.074219 z m 11.851563,1.103516 c 0.589878,0 1.074686,0.256269 1.443359,0.775391 0.244489,0.335486 0.39291,0.838417 0.44336,1.505859 h -3.841797 c 0.04269,-0.692162 0.244556,-1.246978 0.605469,-1.660156 0.364792,-0.413179 0.814062,-0.621094 1.349609,-0.621094 z m -11.855469,0.01758 c 0.578236,0 1.059188,0.252817 1.447266,0.757813 0.388077,0.501464 0.582031,1.242869 0.582031,2.224609 0,1.038243 -0.193928,1.811785 -0.578125,2.320312 -0.388078,0.504996 -0.869055,0.759766 -1.451172,0.759766 -0.585997,0 -1.070907,-0.25477 -1.458984,-0.759766 -0.384197,-0.501464 -0.578125,-1.260289 -0.578125,-2.277343 0,-1.013524 0.190047,-1.771973 0.578125,-2.273438 0.388077,-0.501464 0.872987,-0.751953 1.458984,-0.751953 z"
         style="fill:#979797" />
      <path
         inkscape:connector-curvature="0"
         id="path25"
         d="m 937.37172,2077.0194 c -11.59999,0 -22.01116,3.302 -30.91115,9.802 -9.00001,6.5 -15.76899,16.4552 -20.569,29.9552 -4.70002,13.5 -7.11264,28.0174 -7.11264,43.5174 0,15.7 2.38955,29.888 7.18953,42.5879 4.8,12.6999 11.89949,22.4103 21.29948,29.1101 9.4,6.8001 19.91097,10.0978 31.41098,10.0978 8.5,0 16.81347,-1.9685 24.91347,-6.1685 8.10001,-4.1999 16.0063,-10.4167 23.60627,-18.7167 v -59.2343 h -49.6347 v 18.7166 h 34.33292 V 2206.6 c -3.29998,4.0999 -8.09441,7.8074 -14.49441,11.4074 -6.29999,3.5001 -12.94628,5.2812 -19.64627,5.2812 -7.70001,0 -14.97617,-2.4134 -21.8762,-7.0135 -6.89998,-4.7 -12.08624,-11.7784 -15.68624,-21.3784 -3.60002,-9.6001 -5.42099,-21.4857 -5.42099,-35.7858 0,-11.5999 1.4984,-22.2943 4.49825,-32.1943 1.79997,-5.7 4.1818,-11.0438 7.38177,-15.8438 3.20001,-4.8 7.33362,-8.7187 12.53363,-11.6187 5.2,-2.9 11.27754,-4.3517 18.37754,-4.3517 5.9,0 11.30918,1.4251 16.10917,4.2249 4.89999,2.7001 8.62645,6.5118 11.22645,11.1118 2.50001,4.7 4.69748,11.0814 6.49749,19.1815 l 13.99459,-5.1968 c -2.10008,-10.8 -5.01964,-19.5372 -8.91962,-26.2372 -3.89999,-6.6 -9.30917,-11.7902 -16.10918,-15.5902 -6.90001,-3.7 -14.49114,-5.577 -22.99114,-5.577 z m 686.42768,0 c -7.9,0 -15.0917,1.8926 -21.4917,5.4925 -6.5,3.7 -11.2867,8.9704 -14.6867,15.9705 -3.3,7 -5.0365,14.5037 -5.0365,22.6037 0,7.3 1.3139,14.0419 4.1138,19.9419 2.8,5.9 6.8952,10.8719 12.4952,14.8721 4.3,3.1998 11.8066,6.5132 22.6067,10.0132 10.7999,3.6 17.7765,6.174 20.8765,7.7739 5,2.6002 8.5113,5.7217 10.6113,9.4218 2.1001,3.7999 3.2295,8.0975 3.2295,13.0975 0,4.8999 -1.1448,9.5313 -3.3448,13.7311 -2.2001,4.2001 -5.6116,7.4866 -10.1115,9.8865 -4.6,2.4002 -9.7863,3.5913 -15.6863,3.5913 -6.7,0 -12.6546,-1.6159 -17.9546,-4.8166 -5.3,-3.2 -9.3416,-7.4059 -11.8416,-12.5058 -2.5,-5.2001 -4.0674,-11.773 -4.7674,-19.773 l -14.6097,1.7739 c 0.201,10.7 2.2744,20.1876 6.5744,28.6876 4,8.5001 9.6396,14.8123 16.8396,19.0126 7.1,4.1998 15.9667,6.2951 26.5667,6.2951 8.4,0 15.9067,-1.9685 22.6067,-6.1686 6.7,-4.1998 11.7787,-10.0335 15.3787,-17.5335 3.5,-7.5001 5.344,-15.4981 5.344,-23.9981 0,-8.4999 -1.7212,-16.0613 -4.9211,-22.5615 -3.3,-6.5 -8.3096,-11.924 -15.1096,-16.224 -4.6,-2.9 -13.2746,-6.3243 -25.8746,-10.2244 -12.6,-3.9 -20.4141,-7.7074 -23.4141,-11.4075 -3.1,-3.7999 -4.6136,-8.4537 -4.6136,-14.1537 0,-6.7 2.0821,-12.3267 6.3822,-17.0267 4.3,-4.7 11.1305,-6.9712 20.5305,-6.9712 9,0 15.7768,2.4894 20.3768,7.6895 4.6,5.0999 7.3122,12.6727 8.1122,22.7727 l 14.9174,-1.6056 c -0.3,-9.3993 -2.2055,-17.8225 -5.8055,-25.2225 -3.6,-7.4 -8.7018,-12.931 -15.3018,-16.731 -6.7,-3.8 -14.2911,-5.7037 -22.9911,-5.7037 z m -378.9309,2.6617 v 159.7047 0.1298 h 14.4176 v -63.2057 c 0,-9.1002 0.7838,-16.1942 2.3837,-21.2941 1.5999,-5.2001 4.3353,-9.2948 8.0353,-12.2947 3.8,-3 7.757,-4.5208 11.957,-4.5208 5.5999,0 10.0487,2.1754 13.1487,6.6755 3.0001,4.5001 4.5752,11.6207 4.5752,21.4206 v 73.2192 h 14.3791 v -73.3459 c 0,-11.2999 -0.9605,-19.9568 -2.9604,-25.8569 -2.0001,-6.003 -5.3193,-10.63 -9.9193,-14.03 -4.6,-3.4 -10.1014,-5.07 -16.3014,-5.07 -10.2,0 -18.5979,5.2705 -25.2979,15.9705 v -57.5022 z m 91.0034,0 v 22.3502 h 14.456 v -22.3502 z m 445.7897,0 v 22.3502 h 14.4175 v -22.3502 z m 54.7481,3.549 -14.3791,11.7455 v 28.5187 h -10.5728 v 15.21 h 10.5728 v 66.6703 c 0,11.8002 0.4918,19.5375 1.6917,23.2374 1.2,3.7002 3.1745,6.6149 6.0746,8.9148 2.9,2.3001 6.9493,3.38 12.1492,3.38 3.1,0 6.7651,-0.5322 10.7651,-1.7327 l -1.9608,-17.2379 c -2.6,0.4997 -4.7515,0.7333 -6.1515,0.6338 -2.1001,0 -3.7827,-0.4521 -4.8827,-1.352 -1.2,-0.8999 -1.9991,-2.2447 -2.4991,-3.8448 -0.6,-1.6008 -0.8074,-5.1738 -0.8074,-10.7736 v -67.8112 h 14.4559 v -15.21 h -14.4559 v -40.3487 z m -797.0388,37.9827 c -3.3,0 -6.3888,1.2869 -9.1888,3.887 -2.8,2.6001 -5.9272,7.9817 -9.2272,16.1817 v -17.7027 h -12.8797 v 115.807 0.1298 h 14.4176 v -60.5017 c 0,-8.3002 0.7838,-15.8995 2.3837,-22.8996 0.9999,-4.6001 2.8056,-8.1315 5.3056,-10.7315 2.5,-2.6001 5.2814,-3.887 8.3814,-3.887 3.5,0 7.0344,1.3139 10.5344,4.0138 l 5.0749,-18.083 c -5,-4.103 -9.9019,-6.2138 -14.8019,-6.2138 z m 152.0952,0 c -5.5,0 -10.1715,1.4515 -14.0715,4.3518 -3.9,2.8999 -7.4344,7.3242 -10.5344,13.2242 v -15.21 h -13.0719 v 160.2116 h 14.3022 v -56.488 c 2.5,4.1999 5.581,7.5935 9.381,10.3936 3.8,2.6998 8.0796,4.0981 12.8796,4.0981 6.5,0 12.8236,-2.4781 18.7236,-7.4781 5.9999,-5 10.5101,-12.3588 13.6101,-21.7588 3.1,-9.5001 4.7289,-20.0565 4.7289,-31.8565 0,-11.0001 -1.4291,-21.1199 -4.2291,-30.4199 -2.8,-9.3 -6.9952,-16.4053 -12.4952,-21.5053 -5.6,-5.1 -11.9233,-7.5627 -19.2233,-7.5627 z m 215.3016,0 c -7.3,0 -13.9845,2.2714 -20.1846,6.9713 -6.2999,4.6 -10.8792,11.6982 -13.8792,20.9982 -3.1,9.3999 -4.6136,20.3282 -4.6136,32.8282 0,19.3001 3.5113,34.1045 10.6113,44.4046 7.1,10.3001 16.3892,15.4634 27.9892,15.4634 9.2,0 16.9756,-3.6539 23.3756,-11.1539 6.3,-7.5 10.2416,-17.8537 11.8416,-31.0537 l -14.1484,-2.704 c -1,9.8001 -3.3742,17.1433 -7.0742,21.8433 -3.8,4.7999 -8.5253,7.0979 -14.2253,7.0979 -7,0 -12.7088,-3.6048 -17.1088,-10.6047 -4.3,-7.0001 -6.459,-18.3 -6.459,-33.7999 0,-15.3001 2.2667,-26.4888 6.7666,-33.5886 4.5,-7.1001 10.4239,-10.6049 17.7239,-10.6049 4.8,0 8.8645,2.0151 12.2645,5.915 3.4,3.9001 5.8511,9.6914 7.1511,17.4915 l 13.9177,-2.9152 c -1.6999,-11.7 -5.4418,-20.6823 -11.3418,-27.0823 -5.8,-6.3 -13.4066,-9.5062 -22.6066,-9.5062 z m 75.3171,0 c -4.4,0 -8.4799,0.6814 -12.3799,2.2815 -3.8,1.5999 -6.9118,3.4615 -9.1118,5.6615 -3,2.9 -5.4127,6.585 -7.1127,10.985 -1.7,4.4 -2.6143,9.0382 -2.6143,14.2381 0,5.7001 1.1295,10.9058 3.2295,15.5058 2.1001,4.7 5.0887,8.2851 9.1887,10.985 4.1,2.7001 11.4147,5.8218 21.9147,9.4218 7.8,2.8 12.6866,4.8754 14.6866,6.6754 2.9,2.5002 4.2676,5.9935 4.2676,10.3935 0,4.9 -1.5673,9.3707 -4.7674,12.9707 -3.3,3.6999 -8.202,5.4502 -14.802,5.4502 -6.5,0 -11.6018,-2.068 -15.3018,-6.1684 -3.7,-4.2 -5.8897,-10.114 -6.6897,-17.914 l -14.1868,3.0842 c 1.5999,12.3002 5.2879,21.5005 11.1879,27.8006 5.7001,6.1999 14.1827,9.2948 25.1826,9.2948 6.6001,0 12.6162,-1.4904 17.9162,-4.6896 5.3,-3.2 9.3107,-7.5932 12.1107,-13.3932 2.8,-5.8 4.1907,-11.9209 4.1907,-18.4211 0,-6.6999 -1.1986,-12.3153 -3.4986,-16.8154 -2.3001,-4.4999 -5.5348,-7.9666 -9.5348,-10.2668 -4.1,-2.4 -11.161,-5.3837 -21.261,-9.0837 -7.1,-2.6001 -11.2875,-4.3277 -12.6875,-5.0277 -2.5,-1.3996 -4.3363,-3.0968 -5.5363,-5.1968 -1.1,-2.1005 -1.6531,-4.3444 -1.6531,-6.8444 0,-3.9 1.3523,-7.478 4.1523,-10.478 2.7999,-3 7.5099,-4.4785 14.1099,-4.4785 5.6,0 9.9334,1.7124 13.0334,5.1122 3,3.3999 4.8979,8.0692 5.4979,14.0693 l 14.0715,-2.704 c -0.9002,-7.5001 -2.4826,-13.4562 -4.8827,-17.9563 -2.4002,-4.3999 -6.2266,-8.0047 -11.2266,-10.6047 -5,-2.6001 -10.7932,-3.887 -17.4932,-3.887 z m 417.5313,0 c -11.7,0 -21.2658,5.3972 -28.5659,16.0972 -7.2999,10.7001 -11.0342,25.7652 -11.0342,45.1652 0,18.8001 3.6189,33.4131 10.9189,43.8131 7.3,10.4 17.0886,15.5902 29.4886,15.5902 9.9,0 17.9983,-3.2597 24.2983,-9.7597 6.3,-6.5 10.695,-15.7046 12.995,-27.5046 l -14.8789,-2.704 c -2.2,8.3999 -5.135,14.3675 -9.035,18.1674 -3.7,3.8001 -8.1947,5.7037 -13.4948,5.7037 -7.1,0 -12.9853,-3.3977 -17.6854,-10.0976 -4.6999,-6.7001 -7.4201,-16.4102 -7.9201,-29.1103 h 63.3218 c 0.1004,-2.3 0.077,-3.9968 0.077,-5.1967 0,-19.0999 -3.565,-33.8624 -10.765,-44.3624 -7.0999,-10.6 -16.42,-15.8015 -27.72,-15.8015 z m -800.8451,0.1276 c -7.3,0 -13.7618,1.3559 -19.2618,4.056 -5.6,2.8 -9.9027,6.6033 -12.8027,11.7033 -2.9,4.9999 -5.0437,11.6997 -6.3437,19.8997 l 14.1484,2.704 c 1.5999,-8.2 3.9895,-13.9958 7.1895,-17.1957 3.2,-3.3001 8.1942,-4.9433 14.9942,-4.9433 7.2,0 12.6783,2.2332 16.3783,6.6333 2.7,3.2 4.1138,8.7732 4.1138,16.7731 0,0.7009 0.024,2.4546 -0.077,5.1545 -5.5,2.6002 -14.1208,4.7755 -25.7208,6.6756 -5.7,0.8999 -10.0028,1.8734 -12.8028,2.873 -3.9,1.3996 -7.319,3.622 -10.419,6.4219 -3.0001,2.8 -5.4818,6.4963 -7.3818,11.1962 -1.8,4.7 -2.7682,9.9057 -2.7682,15.5058 0,9.6001 2.4972,17.5022 7.4971,23.7022 5,6.1999 12.1918,9.295 21.4918,9.295 5.7,0 10.9784,-1.1595 15.8784,-3.7603 4.9001,-2.5 10.1172,-6.9397 15.4172,-13.1397 0.4,5.6001 1.2529,10.4184 2.6528,14.6185 h 15.1096 c -1.7,-4.5001 -2.8603,-9.0848 -3.4602,-13.9847 -0.6002,-4.8001 -0.9227,-16.3182 -0.9227,-34.5183 v -25.9837 c 0,-8.6 -0.1909,-14.7406 -0.6921,-18.0406 -0.9,-5.4001 -2.3982,-9.8933 -4.4983,-13.3933 -2.1,-3.6 -5.4961,-6.488 -9.9961,-8.7879 -4.5,-2.3 -10.424,-3.4646 -17.7239,-3.4646 z m 237.1009,2.2393 v 115.807 h 14.456 v -115.807 z m 445.7897,0 v 115.807 h 14.4175 v -115.807 z m -91.4648,0.212 v 71.5712 c 10e-5,8.3001 0.2841,14.4365 0.8843,18.3365 0.8002,5.7 2.3214,10.5339 4.4214,14.5343 2.1001,3.8996 5.3885,7.2019 9.6885,9.8017 4.3,2.6001 8.9947,3.8453 13.9946,3.8446 11.3,0 20.3127,-6.5884 26.9127,-19.6883 v 17.1957 0.2531 h 12.7643 V 2123.791 h -14.379 v 61.8963 c 0,9.9001 -0.7069,17.4458 -2.3068,22.6459 -1.6,5.2001 -4.197,9.2524 -7.9969,12.2525 -3.8001,2.9997 -7.8108,4.4785 -12.1108,4.4785 -4.3,0 -7.9035,-1.4515 -10.8035,-4.3517 -3,-2.9002 -4.9055,-6.9257 -5.8054,-12.126 -0.5998,-3.6 -0.8843,-10.4599 -0.8843,-20.6601 v -64.1354 h -14.3791 z m -500.1148,12.8017 c 6.2,0 11.4785,3.685 15.8785,10.9849 4.5,7.2999 6.6897,18.3396 6.6897,33.0393 0,15.5002 -2.1667,26.7804 -6.7666,34.1803 -4.6,7.3001 -9.9783,10.9849 -16.3783,10.9849 -6.2,0 -11.5938,-3.547 -15.9939,-10.6468 -4.3999,-7.1001 -6.6512,-18.1127 -6.6512,-32.9128 0,-14.8 2.4357,-26.1267 7.0357,-33.9267 4.7,-7.7999 10.0861,-11.7031 16.1861,-11.7031 z m 709.7263,0.7182 c 7.3,0 13.2393,3.7808 17.8393,11.2806 2.9,4.9003 4.7826,12.1855 5.3826,21.8855 h -47.328 c 0.5,-10.1 2.8971,-18.1668 7.4972,-24.1668 4.5,-6 10.0089,-8.9993 16.6089,-8.9993 z m -782.6213,44.0666 -0.077,7.1825 c 0,8.6 -0.7452,15.1194 -2.3452,19.5194 -2.0001,5.7 -5.1964,10.22 -9.4964,13.5199 -4.3,3.3002 -9.3019,4.9012 -14.8019,4.9012 -5.6,0 -9.8643,-1.6959 -12.7643,-5.1969 -3,-3.5 -4.383,-7.7706 -4.383,-12.9707 0,-3.3999 0.6608,-6.495 1.9608,-9.2948 1.4,-2.7001 3.2286,-4.9375 5.7286,-6.3375 2.4,-1.3996 6.672,-2.6869 12.572,-3.8871 10.5,-2.0009 18.4063,-4.536 23.6063,-7.436 z"
         style="fill:#979797" />
      <polygon
         style="clip-rule:evenodd;fill:#61a706;fill-rule:evenodd"
         id="polygon57"
         points="1143.2,1500.7 1301.2,1500.7 1331.9,1366.9 1110.3,1369.1 "
         class="st2" />
      <path
         inkscape:connector-curvature="0"
         id="path59"
         transform="matrix(25.768042,0,0,28.31706,-39.329016,-60.808529)"
         d="M 45.740234,2.3808594 C 44.851537,2.4197052 45.040838,2.3657847 44.121094,2.5917969 21.573785,8.1185005 35.879021,38.086645 46.310547,47 l 0.873047,0.654297 C 39.976993,36.410192 28.024492,9.3272019 45.740234,2.3808594 Z m 6.658204,0 C 70.11418,9.3272019 58.16556,36.410192 50.955078,47.654297 L 51.828125,47 C 62.259651,38.086645 76.564887,8.1185005 54.017578,2.5917969 53.097834,2.3657847 53.287135,2.4197052 52.398438,2.3808594 Z m -3.513672,0.3125 C 47.155003,2.7951185 45.613114,4.4014314 44.84375,5.75 39.818145,14.560943 43.027131,29.756922 45.375,38.765625 l 0.791016,3.089844 c 0.520024,1.79044 1.110937,3.37944 1.646484,5.353515 l 0.232422,0.65625 0.148437,0.292969 1.478516,0.0078 0.173828,-0.07813 0.212891,-0.458985 C 50.970576,45.492385 53.366542,36.374094 53.863281,34.046875 55.213791,27.73266 56.22528,21.298019 55.732422,14.849609 55.546145,12.412916 55.042256,9.6898882 54.041016,7.4121094 53.276503,5.6640466 52.127353,3.6616824 50.105469,2.8847656 49.693621,2.726513 49.283942,2.6698765 48.884766,2.6933594 Z M 36.845703,4.7597656 C 32.409976,6.6384917 29.002998,10.717684 28.269531,15.142578 l -0.171875,1.878906 0.01953,1.511719 0.232421,1.666016 0.128907,0.794922 c 1.746349,8.747377 9.733633,20.21536 16.761718,26.292968 C 35.522771,35.488568 20.856906,16.823165 36.845703,4.7597656 Z m 24.449219,0 C 77.283719,16.823165 62.617828,35.488568 52.896484,47.287109 59.92457,41.209501 67.909901,29.741518 69.65625,20.994141 l 0.128906,-0.794922 0.232422,-1.666016 0.02344,-1.511719 -0.169922,-1.878906 C 69.137627,10.717684 65.730649,6.6384917 61.294922,4.7597656 Z"
         style="clip-rule:evenodd;fill:#979797;fill-rule:evenodd" />
    </g>
    <g
       style="fill:#000000"
       id="g2054"
       transform="matrix(0.51724138,0,0,0.51724138,9.7058825,183.96156)">
      <path
         id="path2034"
         d="m 24.494,56.521 -1.163,-5.688 -1.153,5.688 h -1.9 L 18.41,47.593 h 1.824 l 1.008,5.364 1.129,-5.364 h 1.92 l 1.043,5.364 1.092,-5.364 h 1.812 l -1.848,8.928 z"
         inkscape:connector-curvature="0" />
      <path
         id="path2036"
         d="m 35.787,50.437 -1.741,6.084 h -1.452 l -1.716,-6.072 v 6.072 h -1.7 v -8.928 h 2.552 l 1.584,5.736 1.6,-5.736 h 2.576 v 8.928 h -1.7 z"
         inkscape:connector-curvature="0" />
      <path
         id="path2038"
         d="m 43.274,54.648 h -2.532 l -0.516,1.873 h -1.92 l 2.58,-8.928 h 2.256 l 2.544,8.928 h -1.932 z m -2.1,-1.631 h 1.68 l -0.816,-3.168 z"
         inkscape:connector-curvature="0" />
      <path
         id="path2040"
         d="M 53.84,17.73 C 53.82,17.71 53.8,17.68 53.78,17.66 A 0.484,0.484 0 0 0 53.71,17.58 L 39.42,3.29 C 39.4,3.27 39.37,3.25 39.35,3.23 39.33,3.21 39.29,3.18 39.27,3.16 L 39.12,3 H 14 a 4,4 0 0 0 -4,4 v 50 a 4,4 0 0 0 4,4 h 36 a 4,4 0 0 0 4,-4 V 17.88 Z M 39.71,6.41 50.59,17.29 h -8.88 a 2.006,2.006 0 0 1 -2,-2 z m -1.085,25.408 a 3.793,3.793 0 0 1 2.4,0.825 L 41,23.89 a 0.162,0.162 0 0 1 0.225,-0.151 6.239,6.239 0 0 1 3.735,4.477 0.10138294,0.10138294 0 0 1 -0.185,0.083 2.823,2.823 0 0 0 -2.667,-1.386 V 34.6 c 0.007,0.079 0.014,0.159 0.014,0.24 a 3.288,3.288 0 0 1 -3.5,3.019 3.287,3.287 0 0 1 -3.495,-3.019 3.287,3.287 0 0 1 3.498,-3.022 z M 22.7,24.423 a 6.972,6.972 0 0 1 4.406,1.52 L 27.064,9.836 A 0.3,0.3 0 0 1 27.477,9.558 11.48,11.48 0 0 1 34.352,17.8 0.19,0.19 0 0 1 34.011,17.953 5.2,5.2 0 0 0 29.1,15.4 v 14.138 c 0.013,0.146 0.026,0.292 0.026,0.441 0,3.063 -2.886,5.556 -6.432,5.556 -3.546,0 -6.432,-2.493 -6.432,-5.556 0,-3.063 2.887,-5.556 6.438,-5.556 z M 52,57 a 2.006,2.006 0 0 1 -2,2 H 14 A 2.006,2.006 0 0 1 12,57 V 41.46 h 13.73 l 2.7,3.09 a 0.981,0.981 0 0 0 0.75,0.34 H 52 Z"
         inkscape:connector-curvature="0" />
    </g>
    <g
       id="Layer_2_1_"
       transform="matrix(0.10709325,0,0,0.10709325,15.497025,151.89494)">
	<g
   id="Surfaces">
		<g
   id="Photo_Surface">
			<g
   id="Outline_no_shadow">
				<path
   id="path2077"
   d="m 42.5,0 h 155 C 221,0 240,19 240,42.5 v 149 C 240,215 221,234 197.5,234 H 42.5 C 19,234 0,215 0,191.5 V 42.5 C 0,19 19,0 42.5,0 Z"
   class="st0"
   inkscape:connector-curvature="0"
   style="fill:#001e36" />

			</g>

		</g>

	</g>

	<g
   id="Outlined_Mnemonics_Logos">
		<g
   id="Ps">
			<path
   id="path2082"
   d="M 54,164.1 V 61.2 c 0,-0.7 0.3,-1.1 1,-1.1 1.7,0 3.3,0 5.6,-0.1 2.4,-0.1 4.9,-0.1 7.6,-0.2 2.7,-0.1 5.6,-0.1 8.7,-0.2 3.1,-0.1 6.1,-0.1 9.1,-0.1 8.2,0 15,1 20.6,3.1 5,1.7 9.6,4.5 13.4,8.2 3.2,3.2 5.7,7.1 7.3,11.4 1.5,4.2 2.3,8.5 2.3,13 0,8.6 -2,15.7 -6,21.3 -4,5.6 -9.6,9.8 -16.1,12.2 -6.8,2.5 -14.3,3.4 -22.5,3.4 -2.4,0 -4,0 -5,-0.1 -1,-0.1 -2.4,-0.1 -4.3,-0.1 V 164 c 0.1,0.7 -0.4,1.3 -1.1,1.4 -0.1,0 -0.2,0 -0.4,0 h -19 C 54.4,165.4 54,165 54,164.1 Z M 75.8,79.4 V 113 c 1.4,0.1 2.7,0.2 3.9,0.2 H 85 c 3.9,0 7.8,-0.6 11.5,-1.8 3.2,-0.9 6,-2.8 8.2,-5.3 2.1,-2.5 3.1,-5.9 3.1,-10.3 0.1,-3.1 -0.7,-6.2 -2.3,-8.9 -1.7,-2.6 -4.1,-4.6 -7,-5.7 -3.7,-1.5 -7.7,-2.1 -11.8,-2 -2.6,0 -4.9,0 -6.8,0.1 -2,-0.1 -3.4,0 -4.1,0.1 z"
   class="st1"
   inkscape:connector-curvature="0"
   style="fill:#31a8ff" />

			<path
   id="path2084"
   d="m 192,106.9 c -3,-1.6 -6.2,-2.7 -9.6,-3.4 -3.7,-0.8 -7.4,-1.3 -11.2,-1.3 -2,-0.1 -4.1,0.2 -6,0.7 -1.3,0.3 -2.4,1 -3.1,2 -0.5,0.8 -0.8,1.8 -0.8,2.7 0,0.9 0.4,1.8 1,2.6 0.9,1.1 2.1,2 3.4,2.7 2.3,1.2 4.7,2.3 7.1,3.3 5.4,1.8 10.6,4.3 15.4,7.3 3.3,2.1 6,4.9 7.9,8.3 1.6,3.2 2.4,6.7 2.3,10.3 0.1,4.7 -1.3,9.4 -3.9,13.3 -2.8,4 -6.7,7.1 -11.2,8.9 -4.9,2.1 -10.9,3.2 -18.1,3.2 -4.6,0 -9.1,-0.4 -13.6,-1.3 -3.5,-0.6 -7,-1.7 -10.2,-3.2 -0.7,-0.4 -1.2,-1.1 -1.1,-1.9 v -17.4 c 0,-0.3 0.1,-0.7 0.4,-0.9 0.3,-0.2 0.6,-0.1 0.9,0.1 3.9,2.3 8,3.9 12.4,4.9 3.8,1 7.8,1.5 11.8,1.5 3.8,0 6.5,-0.5 8.3,-1.4 1.6,-0.7 2.7,-2.4 2.7,-4.2 0,-1.4 -0.8,-2.7 -2.4,-4 -1.6,-1.3 -4.9,-2.8 -9.8,-4.7 -5.1,-1.8 -9.8,-4.2 -14.2,-7.2 -3.1,-2.2 -5.7,-5.1 -7.6,-8.5 -1.6,-3.2 -2.4,-6.7 -2.3,-10.2 0,-4.3 1.2,-8.4 3.4,-12.1 2.5,-4 6.2,-7.2 10.5,-9.2 4.7,-2.4 10.6,-3.5 17.7,-3.5 4.1,0 8.3,0.3 12.4,0.9 3,0.4 5.9,1.2 8.6,2.3 0.4,0.1 0.8,0.5 1,0.9 0.1,0.4 0.2,0.8 0.2,1.2 v 16.3 c 0,0.4 -0.2,0.8 -0.5,1 -0.9,0.2 -1.4,0.2 -1.8,0 z"
   class="st1"
   inkscape:connector-curvature="0"
   style="fill:#31a8ff" />

		</g>

	</g>

</g>
    <g
       style="fill:#000000"
       id="g2165"
       transform="matrix(0.46875,0,0,0.46875,77.55039,115.56845)">
      <path
         id="path2154"
         d="m 53,78 c 0.6,0 1,-0.4 1,-1 v -3 h 1 c 1.7,0 3,-1.3 3,-3 0,-1.7 -1.3,-3 -3,-3 h -2 c -0.6,0 -1,0.4 -1,1 v 8 c 0,0.6 0.4,1 1,1 z m 1,-8 h 1 c 0.6,0 1,0.4 1,1 0,0.6 -0.4,1 -1,1 h -1 z m -5,7 v -8 c 0,-0.6 0.4,-1 1,-1 0.6,0 1,0.4 1,1 v 8 c 0,0.6 -0.4,1 -1,1 -0.6,0 -1,-0.4 -1,-1 z m -2,-9 c 0.746,0 1.349,0.828 0.9,1.5 L 44.6,76 H 47 c 0.6,0 1,0.4 1,1 0,0.6 -0.4,1 -1,1 h -4 c -0.746,0 -1.349,-0.828 -0.9,-1.5 l 3.3,-6.6 H 43 c -0.6,0 -1,-0.4 -1,-1 0,-0.601 0.4,-1 1,-1 h 4 z m 25.7,-37.7 -12,-12 C 60.5,18.1 60.3,18 60,18 H 30 c -1.7,0 -3,1.3 -3,3 v 58 c 0,1.7 1.3,3 3,3 h 40 c 1.7,0 3,-1.3 3,-3 V 31 c 0,-0.3 -0.1,-0.5 -0.3,-0.7 z M 61,21.4 69.6,30 H 62 c -0.6,0 -1,-0.4 -1,-1 z M 45,26 h -8 v -2 h 8 z m -8,6 h 8 v 8 c 0,2.2 -1.8,4 -4,4 -2.2,0 -4,-1.8 -4,-4 z m 0,-2 v -2 h 8 v 2 z m 8,-8 h -8 v -2 h 8 z m 26,57 c 0,0.6 -0.4,1 -1,1 H 30 c -0.6,0 -1,-0.4 -1,-1 V 66 h 9 c 0.6,0 1,-0.4 1,-1 0,-0.6 -0.4,-1 -1,-1 H 29 V 21 c 0,-0.6 0.4,-1 1,-1 h 5 v 20 c 0,3.3 2.7,6 6,6 3.3,0 6,-2.7 6,-6 V 20 h 12 v 9 c 0,1.7 1.3,3 3,3 h 9 V 64 H 47 c -0.6,0 -1,0.4 -1,1 0,0.6 0.4,1 1,1 H 71 Z M 42,66 c -0.6,0 -1,-0.4 -1,-1 0,-0.6 0.4,-1 1,-1 h 1 c 0.6,0 1,0.4 1,1 0,0.6 -0.4,1 -1,1 z M 41,43 c 1.7,0 3,-1.3 3,-3 0,-1.7 -1.3,-3 -3,-3 -1.7,0 -3,1.3 -3,3 0,1.7 1.3,3 3,3 z m 0,-4 c 0.6,0 1,0.4 1,1 0,0.6 -0.4,1 -1,1 -0.6,0 -1,-0.4 -1,-1 0,-0.6 0.4,-1 1,-1 z"
         inkscape:connector-curvature="0" />
    </g>
    <g
       style="fill:#000000"
       id="g2206"
       transform="matrix(0.30602094,0,0,0.30602094,14.044175,104.4538)">
      <path
         id="path2186"
         d="M 91.38,37.42 H 77.96 C 77.4,32.52 76.95,27.58 76.77,22.67 L 76.71,21.28 C 76.64,19.56 76.56,17.7 76.58,15.83 h 2.68 c 1.72,0 3.3,-0.98 4.04,-2.5 C 85.5,8.76 84.14,5.01 83.14,3.19 82.73,2.44 82.09,1.87 81.34,1.54 V 1.53 C 81.02,1.39 80.67,1.29 80.32,1.25 H 80.31 C 80.14,1.22 79.97,1.21 79.8,1.21 H 10.67 c -0.01,0 -0.01,0 -0.02,0 C 10.32,1.19 9.46,1.27 8.54,2.18 5.45,5.25 2.87,16.1 8.17,50.32 c 0.04,0.25 0.07,0.49 0.1,0.74 l 0.04,0.22 c 0.12,0.9 0.24,1.79 0.36,2.69 0.17,1.35 0.34,2.71 0.49,4.06 0.2,1.7 0.38,3.39 0.55,5.08 0.19,1.92 0.37,3.84 0.52,5.76 0.16,2.13 0.29,4.11 0.39,6.05 0.1,2.16 0.16,4.13 0.18,6.02 0.02,2.08 -0.02,3.92 -0.11,5.63 -0.09,1.75 -0.23,3.22 -0.44,4.57 -0.03,0 -0.06,-0.01 -0.09,-0.01 -1.5,-0.24 -3.64,-0.09 -5.12,1.06 -0.91,0.7 -1.45,1.69 -1.56,2.86 -0.09,0.91 0.13,1.85 0.61,2.65 0.26,0.41 0.7,0.98 1.4,1.29 0.37,0.17 0.78,0.25 1.2,0.25 0.14,0 0.29,-0.02 0.44,-0.05 0.01,0 0.02,0.01 0.03,0.01 h 70.03 c 0.11,0 0.2,-0.02 0.29,-0.06 0.56,-0.12 1.1,-0.39 1.56,-0.79 1,-0.85 1.5,-2.08 1.83,-3.05 0.93,-2.79 1.19,-5.74 1.33,-8.51 0.34,-6.78 0,-13.55 -0.64,-20.27 h 9.82 c 3.27,0 5.93,-2.66 5.93,-5.93 V 43.34 c 0,-3.27 -2.66,-5.92 -5.93,-5.92 z M 79.8,2.71 c 0.2,0 0.39,0.03 0.57,0.07 0.61,0.16 1.15,0.56 1.46,1.13 1.05,1.92 1.93,5 0.11,8.77 -0.48,1 -1.53,1.65 -2.68,1.65 H 12.29 c 0.21,-0.4 0.44,-0.9 0.69,-1.5 0.47,-1.12 0.74,-2.33 0.82,-3.58 0.13,-2.3 -0.46,-4.57 -1.67,-6.54 z m -68.24,9.62 c -0.57,1.39 -0.89,1.84 -1.03,1.99 C 10.16,14.3 10,14.15 9.9,14.01 9.28,13.12 9.74,10.57 10.33,8.77 l 1.98,-0.02 c 0,0.13 0,0.27 -0.01,0.41 -0.06,1.09 -0.3,2.12 -0.74,3.17 z M 7.98,97.24 c -0.24,0.2 -0.55,0.37 -0.89,0.45 -0.04,0 -0.09,0 -0.12,0.02 C 6.68,97.76 6.37,97.74 6.1,97.62 5.83,97.5 5.58,97.25 5.38,96.92 5.06,96.4 4.92,95.78 4.97,95.19 c 0.08,-0.75 0.41,-1.37 0.99,-1.81 0.7,-0.55 1.79,-0.85 2.94,-0.85 0.34,0 0.68,0.03 1.03,0.08 l 0.06,0.01 c -0.2,0.97 -0.42,1.77 -0.7,2.51 -0.25,0.63 -0.65,1.54 -1.31,2.11 z M 80.7,86.72 c -0.13,2.66 -0.37,5.49 -1.25,8.11 -0.27,0.78 -0.66,1.77 -1.38,2.38 -0.27,0.23 -0.63,0.41 -1,0.49 H 9.6 c 0,-0.01 0.01,-0.01 0.02,-0.02 0.52,-0.68 0.85,-1.44 1.07,-2.02 0.43,-1.11 0.73,-2.34 1,-4 0.24,-1.48 0.39,-3.08 0.5,-5.01 0.09,-1.74 0.13,-3.61 0.11,-5.72 -0.02,-1.91 -0.08,-3.9 -0.19,-6.08 C 12.02,72.9 11.89,70.9 11.72,68.75 11.57,66.82 11.4,64.89 11.21,62.97 11.04,61.26 10.85,59.56 10.65,57.86 10.5,56.5 10.33,55.14 10.15,53.78 10.04,52.88 9.92,51.98 9.79,51.07 L 9.76,50.85 C 9.72,50.6 9.69,50.35 9.65,50.09 4.06,13.94 7.66,5.38 9.47,3.38 c 0.36,-0.4 0.66,-0.56 0.86,-0.63 1.02,1.33 1.66,2.88 1.89,4.5 L 9.27,7.27 9.09,7.76 c -0.19,0.52 -1.82,5.11 -0.41,7.12 0.3,0.41 0.85,0.91 1.84,0.94 0.04,0.01 0.08,0.01 0.12,0.01 h 64.45 c -0.02,1.91 0.05,3.78 0.12,5.52 l 0.06,1.38 c 0.18,4.9 0.62,9.81 1.18,14.69 H 36.51 c -3.26,0 -5.92,2.65 -5.92,5.92 v 17.25 c 0,3.27 2.66,5.93 5.92,5.93 h 43.54 c 0.65,6.7 0.99,13.46 0.65,20.2 z M 95.81,60.59 c 0,2.44 -1.99,4.43 -4.43,4.43 H 81.41 79.9 36.51 c -2.44,0 -4.42,-1.99 -4.42,-4.43 V 43.34 c 0,-2.44 1.98,-4.42 4.42,-4.42 h 40.11 1.52 13.24 c 2.44,0 4.43,1.98 4.43,4.42 z"
         inkscape:connector-curvature="0" />
      <path
         id="path2188"
         d="m 58.44,60.796 h -4.848 l -2.914,-4.409 c -0.218,-0.335 -0.427,-0.634 -0.627,-0.896 -0.201,-0.263 -0.403,-0.487 -0.608,-0.675 -0.205,-0.188 -0.418,-0.331 -0.64,-0.431 -0.222,-0.1 -0.464,-0.149 -0.725,-0.149 h -1.137 v 6.561 H 42.72 V 43.661 h 6.69 c 4.548,0 6.821,1.553 6.821,4.66 0,0.598 -0.101,1.149 -0.301,1.655 -0.2,0.506 -0.483,0.962 -0.85,1.368 -0.365,0.406 -0.808,0.757 -1.326,1.052 -0.518,0.295 -1.096,0.525 -1.73,0.693 v 0.048 c 0.277,0.079 0.549,0.209 0.81,0.388 0.261,0.18 0.514,0.389 0.758,0.628 0.244,0.238 0.477,0.496 0.699,0.771 0.222,0.274 0.425,0.544 0.607,0.807 z M 46.942,46.552 v 4.768 h 1.829 c 0.906,0 1.633,-0.239 2.182,-0.717 0.558,-0.486 0.836,-1.087 0.836,-1.804 0,-1.498 -0.979,-2.247 -2.939,-2.247 z"
         inkscape:connector-curvature="0" />
      <path
         id="path2190"
         d="M 73.351,46.803 H 68.006 V 60.796 H 63.773 V 46.803 H 58.455 V 43.66 h 14.896 z"
         inkscape:connector-curvature="0" />
      <path
         id="path2192"
         d="m 86.704,46.803 h -6.612 v 4.207 h 6.076 v 3.13 h -6.076 v 6.656 H 75.871 V 43.661 h 10.833 z"
         inkscape:connector-curvature="0" />
    </g>
    <text
       xml:space="preserve"
       style="font-style:normal;font-variant:normal;font-weight:normal;font-stretch:normal;font-size:14.11111069px;line-height:1.25;font-family:'Noto Color Emoji';-inkscape-font-specification:'Noto Color Emoji, Normal';font-variant-ligatures:normal;font-variant-caps:normal;font-variant-numeric:normal;font-feature-settings:normal;text-align:start;letter-spacing:0px;word-spacing:0px;writing-mode:lr-tb;text-anchor:start;fill:#000000;fill-opacity:1;stroke:none;stroke-width:0.26458332"
       x="5.1866765"
       y="235.0119"
       id="text2210"><tspan
         sodipodi:role="line"
         id="tspan2208"
         x="5.1866765"
         y="235.0119"
         style="font-style:normal;font-variant:normal;font-weight:normal;font-stretch:normal;font-size:2.82222223px;font-family:Arial;-inkscape-font-specification:Arial;fill:#666666;stroke-width:0.26458332">CC-BY images: RTF by Ataur Rahman, WMA by JunGSa, AAC by Alfredo @ IconsAlfredo.com, ZIP by Setyo Ari Wibowo, FLAC: Mike Wren, HTML: W3C</tspan></text>
    <g
       id="g2340"
       transform="matrix(0.12502289,0,0,0.12502289,152.71692,52.638392)">
      <rect
         id="rect4"
         height="130"
         width="262"
         x="0"
         y="0" />
      <g
         style="fill:#fdfffc"
         id="free lossless audio codec"
         transform="matrix(0.70835613,0,0,0.70835613,39.502082,34.424583)">
        <path
           id="path10"
           d="m 39.718509,125.17462 v -9.359 h -1.614 v -1.421 h 1.614 v -1.147 c 0,-0.724 0.064,-1.262 0.193,-1.614 0.176,-0.473 0.485,-0.857 0.928,-1.152 0.444,-0.294 1.064,-0.441 1.863,-0.441 0.514,0 1.083,0.061 1.705,0.183 l -0.274,1.593 c -0.379,-0.067 -0.737,-0.101 -1.076,-0.101 -0.555,0 -0.947,0.118 -1.177,0.355 -0.23,0.237 -0.345,0.68 -0.345,1.33 v 0.994 h 2.101 v 1.421 h -2.101 v 9.359 z"
           inkscape:connector-curvature="0" />
        <path
           id="path12"
           d="m 46.33753,125.17462 v -10.78 h 1.645 v 1.635 c 0.419,-0.765 0.807,-1.269 1.162,-1.513 0.355,-0.243 0.746,-0.365 1.172,-0.365 0.616,0 1.242,0.196 1.878,0.588 l -0.629,1.696 c -0.447,-0.264 -0.893,-0.396 -1.34,-0.396 -0.399,0 -0.758,0.12 -1.076,0.36 -0.318,0.24 -0.545,0.573 -0.68,1 -0.203,0.649 -0.304,1.36 -0.304,2.131 v 5.644 z"
           inkscape:connector-curvature="0" />
        <path
           id="path14"
           d="m 62.268403,121.70262 1.888,0.234 c -0.297,1.103 -0.849,1.959 -1.654,2.568 -0.805,0.609 -1.834,0.913 -3.086,0.913 -1.576,0 -2.827,-0.485 -3.75,-1.456 -0.924,-0.971 -1.386,-2.333 -1.386,-4.086 0,-1.813 0.467,-3.221 1.401,-4.222 0.934,-1.002 2.145,-1.502 3.634,-1.502 1.441,0 2.618,0.49 3.532,1.472 0.913,0.981 1.37,2.361 1.37,4.141 0,0.108 -0.003,0.27 -0.01,0.487 h -8.039 c 0.068,1.184 0.403,2.091 1.005,2.72 0.602,0.63 1.353,0.944 2.253,0.944 0.67,0 1.242,-0.176 1.716,-0.528 0.473,-0.351 0.849,-0.913 1.126,-1.685 z m -5.998,-2.953 h 6.019 c -0.082,-0.907 -0.312,-1.587 -0.691,-2.04 -0.581,-0.704 -1.336,-1.056 -2.263,-1.056 -0.839,0 -1.545,0.281 -2.116,0.842 -0.572,0.562 -0.888,1.313 -0.949,2.254 z"
           inkscape:connector-curvature="0" />
        <use
           xlink:href="#path14"
           height="130"
           width="265"
           y="0"
           x="0"
           id="use16"
           transform="translate(12.711438)" />
        <rect
           id="rect20"
           y="110.29462"
           x="88.229515"
           height="14.88"
           width="1.827" />
        <path
           id="path22"
           d="m 93.724991,119.7721 c 0,-1.996 0.554,-3.475 1.664,-4.436 0.927,-0.798 2.057,-1.197 3.39,-1.197 1.481999,0 2.693999,0.485 3.633999,1.456 0.941,0.971 1.411,2.313 1.411,4.025 0,1.387 -0.208,2.478 -0.624,3.273 -0.416,0.795 -1.022,1.413 -1.817,1.853 -0.795,0.44 -1.662999,0.659 -2.603999,0.659 -1.509,0 -2.728,-0.483 -3.659,-1.451 -0.93,-0.968 -1.395,-2.362 -1.395,-4.182 z m 1.877,0 c 0,1.38 0.301,2.414 0.904,3.101 0.602,0.687 1.36,1.03 2.273,1.03 0.907,0 1.661999,-0.345 2.263999,-1.035 0.602,-0.69 0.903,-1.743 0.903,-3.157 0,-1.333 -0.303,-2.343 -0.908,-3.03 -0.606,-0.686 -1.358999,-1.03 -2.258999,-1.03 -0.913,0 -1.671,0.342 -2.273,1.025 -0.603,0.684 -0.904,1.716 -0.904,3.096 z"
           inkscape:connector-curvature="0" />
        <path
           id="path24"
           d="m 106.41705,121.93201 1.807,-0.284 c 0.101,0.724 0.384,1.279 0.847,1.665 0.464,0.385 1.112,0.578 1.944,0.578 0.839,0 1.462,-0.171 1.868,-0.512 0.406,-0.342 0.609,-0.743 0.609,-1.203 0,-0.413 -0.18,-0.738 -0.538,-0.975 -0.251,-0.162 -0.873,-0.368 -1.868,-0.619 -1.34,-0.338 -2.269,-0.631 -2.786,-0.878 -0.518,-0.247 -0.91,-0.588 -1.178,-1.025 -0.267,-0.436 -0.401,-0.919 -0.401,-1.446 0,-0.481 0.11,-0.926 0.33,-1.335 0.22,-0.409 0.52,-0.749 0.899,-1.02 0.284,-0.21 0.671,-0.388 1.162,-0.533 0.49,-0.146 1.016,-0.218 1.578,-0.218 0.846,0 1.589,0.122 2.228,0.365 0.64,0.244 1.112,0.574 1.416,0.99 0.305,0.416 0.514,0.972 0.629,1.669 l -1.786,0.244 c -0.081,-0.555 -0.316,-0.988 -0.706,-1.299 -0.389,-0.311 -0.938,-0.467 -1.649,-0.467 -0.839,0 -1.438,0.139 -1.797,0.416 -0.358,0.278 -0.537,0.602 -0.537,0.975 0,0.236 0.074,0.45 0.223,0.639 0.149,0.196 0.382,0.359 0.7,0.487 0.183,0.068 0.721,0.224 1.614,0.467 1.293,0.345 2.194,0.628 2.705,0.848 0.511,0.22 0.912,0.539 1.203,0.959 0.291,0.419 0.436,0.94 0.436,1.563 0,0.609 -0.177,1.182 -0.533,1.72 -0.355,0.538 -0.867,0.955 -1.537,1.249 -0.67,0.294 -1.428,0.441 -2.274,0.441 -1.401,0 -2.468,-0.291 -3.202,-0.872 -0.734,-0.582 -1.203,-1.445 -1.406,-2.589 z"
           inkscape:connector-curvature="0" />
        <use
           xlink:href="#path24"
           height="130"
           width="265"
           y="0"
           x="0"
           id="use26"
           transform="translate(11.902911)" />
        <rect
           id="rect28"
           y="110.29462"
           x="130.46033"
           height="14.88"
           width="1.827" />
        <use
           xlink:href="#path14"
           height="130"
           width="265"
           y="0"
           x="0"
           id="use30"
           transform="translate(81.88538)" />
        <use
           xlink:href="#path24"
           height="130"
           width="265"
           y="0"
           x="0"
           id="use32"
           transform="translate(42.254931)" />
        <use
           xlink:href="#path24"
           height="130"
           width="265"
           y="0"
           x="0"
           id="use34"
           transform="translate(54.133708)" />
        <path
           id="path38"
           d="m 187.58341,123.85256 c -0.676,0.575 -1.328,0.981 -1.954,1.218 -0.625,0.237 -1.297,0.355 -2.014,0.355 -1.185,0 -2.095,-0.289 -2.731,-0.867 -0.636,-0.579 -0.954,-1.318 -0.954,-2.218 0,-0.528 0.12,-1.01 0.36,-1.447 0.241,-0.436 0.555,-0.786 0.944,-1.05 0.39,-0.264 0.828,-0.464 1.315,-0.599 0.359,-0.095 0.9,-0.186 1.624,-0.274 1.475,-0.176 2.561,-0.386 3.258,-0.629 0.007,-0.251 0.01,-0.41 0.01,-0.477 0,-0.745 -0.172,-1.269 -0.517,-1.574 -0.467,-0.413 -1.161,-0.619 -2.081,-0.619 -0.86,0 -1.494,0.151 -1.903,0.452 -0.41,0.301 -0.713,0.834 -0.909,1.598 l -1.786,-0.243 c 0.162,-0.765 0.43,-1.382 0.802,-1.853 0.372,-0.47 0.91,-0.832 1.614,-1.086 0.703,-0.253 1.519,-0.38 2.446,-0.38 0.92,0 1.668,0.108 2.243,0.325 0.575,0.216 0.998,0.488 1.269,0.817 0.27,0.328 0.46,0.742 0.568,1.243 0.061,0.311 0.091,0.873 0.091,1.685 v 2.436 c 0,1.698 0.039,2.773 0.117,3.223 0.078,0.45 0.232,0.881 0.462,1.294 h -1.908 c -0.19,-0.379 -0.311,-0.822 -0.366,-1.33 z m -0.152,-4.08 c -0.663,0.27 -1.658,0.501 -2.984,0.69 -0.751,0.108 -1.282,0.23 -1.594,0.365 -0.311,0.136 -0.551,0.334 -0.72,0.594 -0.169,0.261 -0.254,0.55 -0.254,0.868 0,0.487 0.184,0.893 0.553,1.218 0.369,0.325 0.909,0.487 1.619,0.487 0.704,0 1.33,-0.154 1.878,-0.462 0.548,-0.307 0.951,-0.729 1.208,-1.263 0.196,-0.413 0.294,-1.022 0.294,-1.827 z"
           inkscape:connector-curvature="0" />
        <path
           id="path40"
           d="m 200.4943,125.16335 v -1.584 c -0.839,1.218 -1.979,1.827 -3.421,1.827 -0.636,0 -1.23,-0.121 -1.781,-0.365 -0.552,-0.244 -0.961,-0.55 -1.228,-0.919 -0.268,-0.368 -0.455,-0.82 -0.564,-1.355 -0.074,-0.358 -0.111,-0.927 -0.111,-1.705 v -6.679 h 1.827 v 5.979 c 0,0.954 0.037,1.597 0.111,1.928 0.115,0.481 0.359,0.858 0.731,1.132 0.372,0.274 0.833,0.411 1.381,0.411 0.548,0 1.062,-0.14 1.543,-0.421 0.48,-0.281 0.82,-0.663 1.02,-1.147 0.199,-0.484 0.299,-1.186 0.299,-2.106 v -5.776 h 1.827 v 10.78 z"
           inkscape:connector-curvature="0" />
        <path
           id="path42"
           d="m 213.28866,125.18536 v -1.36 c -0.684,1.069 -1.688,1.603 -3.015,1.603 -0.859,0 -1.649,-0.236 -2.37,-0.71 -0.72,-0.474 -1.279,-1.135 -1.675,-1.984 -0.395,-0.85 -0.593,-1.826 -0.593,-2.929 0,-1.076 0.179,-2.052 0.538,-2.928 0.358,-0.876 0.896,-1.548 1.614,-2.015 0.717,-0.467 1.519,-0.7 2.405,-0.7 0.65,0 1.228,0.137 1.736,0.411 0.507,0.274 0.92,0.631 1.238,1.071 v -5.339 h 1.817 v 14.88 z m -5.776,-5.38 c 0,1.381 0.291,2.413 0.873,3.096 0.582,0.683 1.269,1.025 2.061,1.025 0.798,0 1.477,-0.326 2.035,-0.979 0.558,-0.653 0.837,-1.65 0.837,-2.99 0,-1.475 -0.284,-2.557 -0.852,-3.248 -0.569,-0.69 -1.269,-1.035 -2.101,-1.035 -0.812,0 -1.491,0.332 -2.035,0.995 -0.545,0.663 -0.818,1.708 -0.818,3.136 z"
           inkscape:connector-curvature="0" />
        <path
           id="path44"
           d="m 219.35332,112.38435 v -2.101 h 1.827 v 2.101 z m 0,12.779 v -10.78 h 1.827 v 10.78 z"
           inkscape:connector-curvature="0" />
        <use
           xlink:href="#path22"
           height="130"
           width="265"
           y="0"
           x="0"
           id="use46"
           transform="translate(131.18516)" />
        <path
           id="path50"
           d="m 252.63886,121.21247 1.797,0.234 c -0.196,1.238 -0.699,2.208 -1.507,2.908 -0.809,0.7 -1.802,1.05 -2.979,1.05 -1.476,0 -2.661,-0.482 -3.558,-1.446 -0.897,-0.964 -1.345,-2.346 -1.345,-4.146 0,-1.164 0.193,-2.183 0.579,-3.056 0.385,-0.872 0.972,-1.527 1.761,-1.964 0.788,-0.436 1.646,-0.654 2.573,-0.654 1.17,0 2.128,0.296 2.872,0.888 0.745,0.592 1.222,1.433 1.431,2.522 l -1.776,0.274 c -0.169,-0.724 -0.468,-1.269 -0.898,-1.634 -0.43,-0.365 -0.949,-0.548 -1.558,-0.548 -0.92,0 -1.668,0.33 -2.243,0.99 -0.576,0.659 -0.863,1.703 -0.863,3.131 0,1.448 0.277,2.5 0.832,3.157 0.555,0.656 1.279,0.984 2.172,0.984 0.718,0 1.316,-0.22 1.797,-0.66 0.48,-0.439 0.785,-1.116 0.913,-2.03 z"
           inkscape:connector-curvature="0" />
        <use
           xlink:href="#path22"
           height="130"
           width="265"
           y="0"
           x="0"
           id="use52"
           transform="translate(163.08566)" />
        <path
           id="path54"
           d="m 277.03214,125.15536 v -1.36 c -0.684,1.069 -1.689,1.603 -3.015,1.603 -0.859,0 -1.649,-0.236 -2.37,-0.71 -0.721,-0.474 -1.279,-1.135 -1.675,-1.984 -0.396,-0.85 -0.594,-1.826 -0.594,-2.929 0,-1.076 0.18,-2.052 0.538,-2.928 0.359,-0.876 0.897,-1.548 1.614,-2.015 0.718,-0.467 1.519,-0.7 2.406,-0.7 0.649,0 1.228,0.137 1.736,0.411 0.507,0.274 0.92,0.631 1.238,1.071 v -5.339 h 1.817 v 14.88 z m -5.776,-5.38 c 0,1.381 0.291,2.413 0.873,3.096 0.582,0.683 1.269,1.025 2.061,1.025 0.798,0 1.476,-0.326 2.035,-0.979 0.558,-0.653 0.837,-1.65 0.837,-2.99 0,-1.475 -0.284,-2.557 -0.853,-3.248 -0.568,-0.69 -1.268,-1.035 -2.101,-1.035 -0.812,0 -1.49,0.332 -2.035,0.995 -0.544,0.663 -0.817,1.708 -0.817,3.136 z"
           inkscape:connector-curvature="0" />
        <use
           xlink:href="#path14"
           height="130"
           width="265"
           y="0"
           x="0"
           id="use56"
           transform="translate(227.89408)" />
        <use
           xlink:href="#path50"
           height="130"
           width="265"
           y="0"
           x="0"
           id="use58"
           transform="translate(50.014443)" />
      </g>
      <g
         style="fill:#fdfffc"
         id="flac">
        <path
           id="path61"
           d="M 66.301508,50.396255 55.918285,50.37575 59.649535,33 l 6.651973,0.01256 v -1.613661 c 0,-4.810264 0.77954,-8.914045 2.289846,-12.331951 1.542851,-3.491553 3.685838,-6.335819 6.465449,-8.527413 2.877659,-2.2689015 6.282744,-3.9467059 10.236959,-4.9852576 4.037822,-1.06051 8.431508,-1.5734761 13.312967,-1.5735718 l 5.022131,19.4442634 -6.089555,-0.132583 c -3.86672,-0.08419 -6.764519,0.816904 -8.634534,2.522345 -1.817914,1.657925 -2.698292,4.28957 -2.698292,7.395561 l 11.46125,-0.21025 v 17.37575 H 86.206479 V 99.952624 L 66.301508,102.20181 V 50.396297"
           inkscape:connector-curvature="0" />
        <path
           id="path63"
           d="m 129.11253,6.5346891 0.0625,93.4741309 -20.17013,2.53203 V 8.7924247 Z"
           inkscape:connector-curvature="0" />
        <path
           id="path65"
           d="m 157.8125,55.625 c -13.90219,-0.08596 -23.28125,9.722558 -23.28125,23.90625 0,14.183691 10.10448,23.99225 23.28125,23.90625 13.17677,-0.086 21.34375,-10.113575 21.34375,-25.0625 0,-14.948924 -7.44156,-22.66404 -21.34375,-22.75 z m 5.53125,13.625 c 5.45822,0 9.75,3.598105 9.75,8.90625 0,5.308145 -4.01013,8.90625 -9.75,8.90625 -5.73985,0 -9.75,-3.627784 -9.75,-8.90625 0,-5.278467 4.29179,-8.90625 9.75,-8.90625 z"
           inkscape:connector-curvature="0" />
        <path
           id="path67"
           d="m 173.74995,57.732108 c 0,-3.130117 -1.05228,-5.624463 -3.15673,-7.483047 -2.00432,-1.858482 -5.19181,-2.78775 -9.77085,-2.787803 -3.45978,0 -6.97586,0.561877 -9.73656,1.316906 -2.76073,0.660746 -5.01021,1.415826 -6.74843,2.265243 l 3.01488,-18.182287 c 1.27692,-0.523298 3.51153,-1.112099 6.7039,-1.766287 3.19229,-0.654172 7.20519,-0.98127 12.17647,-0.98127 7.32337,0 14.41861,2.158503 19.13195,6.401568 5.56899,5.013328 6.81601,8.554778 6.85453,18.412212 0.0589,15.07701 -1.29993,45.782807 -1.29993,45.782807 l -17.48172,1.6768"
           inkscape:connector-curvature="0" />
        <path
           id="path69"
           d="m 234,30 c -19.99431,0 -35.75,14.918178 -35.75,36.6875 0,21.769322 14.72405,36.71875 35.75,36.71875 9.7245,0 18.086,-3.17475 24.28125,-8.75 l -10.75,-15.25 c -2.94202,3.159896 -7.11604,5 -12.0625,5 -9.80821,0 -17.25,-8.148911 -17.25,-17.71875 0,-10.497916 7.92303,-17.6875 17.25,-17.6875 4.59876,0 8.69913,1.727004 11.6875,4.75 l 10.5625,-15.125 C 251.44109,33.135256 243.17735,30 234,30 Z"
           inkscape:connector-curvature="0" />
      </g>
      <g
         id="Left"
         clip-path="url(#clipPath174)">
        <g
           id="g70">
          <path
             style="fill:#ffff01"
             id="rect72"
             d="M 2.75,34.64375 V 46.3 h 8.24375 V 34.64375 Z m 0,16 V 62.3 h 8.24375 V 50.64375 Z m 0,16 V 78.3 h 8.24375 V 66.64375 Z"
             inkscape:connector-curvature="0" />
          <path
             style="fill:#2ea02a"
             id="rect74"
             d="M 2.75,82.64375 V 94.3 h 8.24375 V 82.64375 Z m 0,16 V 110.3 h 8.24375 V 98.64375 Z m 0,16 V 126.3 h 8.24375 v -11.65625 z"
             inkscape:connector-curvature="0" />
          <path
             style="fill:#ff0000"
             id="rect76"
             d="m 2.75,2.8625 v 11.65625 h 8.24375 V 2.8625 Z m 0,15.78125 V 30.3 h 8.24375 V 18.64375 Z"
             inkscape:connector-curvature="0" />
        </g>
        <use
           xlink:href="#g70"
           height="130"
           width="265"
           y="0"
           x="0"
           id="use78"
           transform="translate(13)" />
        <use
           xlink:href="#g70"
           height="130"
           width="265"
           y="0"
           x="0"
           id="use80"
           transform="translate(26)" />
        <use
           xlink:href="#g70"
           height="130"
           width="265"
           y="0"
           x="0"
           id="use82"
           transform="translate(39)" />
      </g>
    </g>
    <g
       id="g2386"
       transform="matrix(0.05859375,0,0,0.05859375,160.54577,72.876475)">
      <path
         id="path2363"
         d="m 108.4,0 h 23 v 22.8 h 21.2 V 0 h 23 v 69 h -23 V 46 h -21 V 69 H 108.4 M 206,23 H 185.7 V 0 h 63.7 V 23 H 229 V 69 H 206 M 259.5,0 h 24.1 L 298.4,24.3 313.2,0 h 24.1 v 69 h -23 V 34.8 L 298.2,59.6 282.1,34.8 V 69 H 259.5 M 348.7,0 h 23 v 46.2 h 32.6 V 69 h -55.6"
         inkscape:connector-curvature="0" />
      <path
         id="path2365"
         d="M 107.6,471 74.6,100.6 H 437.4 L 404.4,470.8 255.7,512"
         inkscape:connector-curvature="0"
         style="fill:#e44d26" />
      <path
         id="path2367"
         d="M 256,480.5 V 131 H 404.3 L 376,447"
         inkscape:connector-curvature="0"
         style="fill:#f16529" />
      <path
         id="path2369"
         d="m 142,176.3 h 114 v 45.4 h -64.2 l 4.2,46.5 h 60 v 45.3 H 154.4 m 2,22.8 H 202 l 3.2,36.3 50.8,13.6 v 47.4 l -93.2,-26"
         inkscape:connector-curvature="0"
         style="fill:#ebebeb" />
      <path
         id="path2371"
         d="M 369.6,176.3 H 255.8 v 45.4 h 109.6 m -4.1,46.5 H 255.8 v 45.4 h 56 l -5.3,59 -50.7,13.6 v 47.2 l 93,-25.8"
         inkscape:connector-curvature="0"
         style="fill:#ffffff" />
    </g>
    <flowRoot
       xml:space="preserve"
       id="flowRoot2388"
       style="font-style:normal;font-variant:normal;font-weight:normal;font-stretch:normal;font-size:53.33333206px;line-height:1.25;font-family:'Noto Color Emoji';-inkscape-font-specification:'Noto Color Emoji, Normal';font-variant-ligatures:normal;font-variant-caps:normal;font-variant-numeric:normal;font-feature-settings:normal;text-align:start;letter-spacing:0px;word-spacing:0px;writing-mode:lr-tb;text-anchor:start;fill:#000000;fill-opacity:1;stroke:none"
       transform="scale(0.26458333)"><flowRegion
         id="flowRegion2390"><rect
           id="rect2392"
           width="137.88625"
           height="204.24681"
           x="87.05661"
           y="246.30144" /></flowRegion><flowPara
         id="flowPara2394"></flowPara></flowRoot>  </g>
  <style
     id="style3"
     type="text/css">
	.st0{fill:#979797;}
	.st1{fill:#61A706;}
	.st2{fill-rule:evenodd;clip-rule:evenodd;fill:#61A706;}
	.st3{fill-rule:evenodd;clip-rule:evenodd;fill:#979797;}
</style>
  <style
     id="style2075"
     type="text/css">
	.st0{fill:#001E36;}
	.st1{fill:#31A8FF;}
</style>
</svg>
